<svg xmlns="http://www.w3.org/2000/svg" width="2334" height="1280">
 <!-- Created with Image Occlusion Enhanced -->
 <g>
  <title>Labels</title>
 </g>
 <g>
  <title>Masks</title>
  <rect id="06a0dad556a7465b816f9d288e21facf-oa-1" height="44.73684" width="213.1579" y="25.26317" x="42.31584" stroke="#2D2D2D" fill="#ff0000"/>
  <rect id="06a0dad556a7465b816f9d288e21facf-oa-2" height="60.52632" width="260.52632" y="159.4737" x="1247.57902" stroke="#2D2D2D" fill="#ff0000"/>
  <rect id="06a0dad556a7465b816f9d288e21facf-oa-3" height="47.36842" width="150" y="246.31581" x="468.63163" stroke="#2D2D2D" fill="#ff0000"/>
  <rect id="06a0dad556a7465b816f9d288e21facf-oa-4" height="52.63158" width="57.89474" y="243.68423" x="1181.78954" stroke="#2D2D2D" fill="#ff0000"/>
  <rect id="06a0dad556a7465b816f9d288e21facf-oa-5" height="44.73684" width="60.52632" y="241.05265" x="1476.52639" stroke="#2D2D2D" fill="#ff0000"/>
  <rect id="06a0dad556a7465b816f9d288e21facf-oa-6" height="57.89474" width="76.31579" y="241.05265" x="2016.00008" stroke="#2D2D2D" fill="#ff0000"/>
  <rect id="06a0dad556a7465b816f9d288e21facf-oa-7" height="42.10526" width="55.26316" y="306.84212" x="918.63164" stroke="#2D2D2D" fill="#ff0000"/>
  <rect id="06a0dad556a7465b816f9d288e21facf-oa-8" height="52.63158" width="310.52632" y="388.42107" x="1594.94744" stroke="#2D2D2D" fill="#ff0000"/>
  <rect id="06a0dad556a7465b816f9d288e21facf-oa-9" height="50" width="107.89474" y="451.57897" x="381.78953" stroke="#2D2D2D" fill="#ff0000"/>
  <rect id="06a0dad556a7465b816f9d288e21facf-oa-10" height="52.63158" width="52.63158" y="448.94739" x="766.00006" stroke="#2D2D2D" fill="#ff0000"/>
  <rect id="06a0dad556a7465b816f9d288e21facf-oa-11" height="63.1579" width="321.05264" y="438.42107" x="1366.00007" stroke="#2D2D2D" fill="#ff0000"/>
  <rect id="06a0dad556a7465b816f9d288e21facf-oa-12" height="39.47368" width="100" y="520.00002" x="1639.68429" stroke="#2D2D2D" fill="#ff0000"/>
  <rect id="06a0dad556a7465b816f9d288e21facf-oa-13" height="44.73684" width="97.36842" y="585.7895" x="42.31584" stroke="#2D2D2D" fill="#ff0000"/>
  <rect id="06a0dad556a7465b816f9d288e21facf-oa-14" height="50" width="100" y="664.73687" x="1994.94745" stroke="#2D2D2D" fill="#ff0000"/>
  <rect id="06a0dad556a7465b816f9d288e21facf-oa-15" height="47.36842" width="63.1579" y="725.26318" x="447.579" stroke="#2D2D2D" fill="#ff0000"/>
  <rect id="06a0dad556a7465b816f9d288e21facf-oa-16" height="47.36842" width="381.57895" y="733.15792" x="994.94743" stroke="#2D2D2D" fill="#ff0000"/>
  <rect id="06a0dad556a7465b816f9d288e21facf-oa-17" height="63.1579" width="57.89474" y="720.00003" x="1616.00008" stroke="#2D2D2D" fill="#ff0000"/>
  <rect id="06a0dad556a7465b816f9d288e21facf-oa-18" height="57.89474" width="271.05264" y="793.68424" x="39.68426" stroke="#2D2D2D" fill="#ff0000"/>
  <rect id="06a0dad556a7465b816f9d288e21facf-oa-19" height="52.63158" width="342.10527" y="880.52634" x="1244.94744" stroke="#2D2D2D" fill="#ff0000"/>
  <rect id="06a0dad556a7465b816f9d288e21facf-oa-20" height="44.73684" width="310.52632" y="885.7895" x="1810.73692" stroke="#2D2D2D" fill="#ff0000"/>
  <rect id="06a0dad556a7465b816f9d288e21facf-oa-21" height="44.73684" width="144.73684" y="951.57898" x="1955.47377" stroke="#2D2D2D" fill="#ff0000"/>
  <rect id="06a0dad556a7465b816f9d288e21facf-oa-22" height="44.73684" width="118.42105" y="1012.10529" x="994.94743" stroke="#2D2D2D" fill="#ff0000"/>
  <rect id="06a0dad556a7465b816f9d288e21facf-oa-23" height="47.36842" width="52.63158" y="1006.84214" x="1387.0527" stroke="#2D2D2D" fill="#ff0000"/>
  <rect id="06a0dad556a7465b816f9d288e21facf-oa-24" height="52.63158" width="121.05263" y="1075.26319" x="1223.89481" stroke="#2D2D2D" fill="#ff0000"/>
  <rect id="06a0dad556a7465b816f9d288e21facf-oa-25" height="39.47368" width="57.89474" y="1077.89477" x="1589.68429" stroke="#2D2D2D" fill="#ff0000"/>
  <rect id="06a0dad556a7465b816f9d288e21facf-oa-26" height="44.73684" width="100" y="1154.21056" x="1326.52639" stroke="#2D2D2D" fill="#ff0000"/>
  <rect id="06a0dad556a7465b816f9d288e21facf-oa-27" height="47.36842" width="60.52632" y="1151.57898" x="1660.73692" stroke="#2D2D2D" fill="#ff0000"/>
 </g>
</svg>