<svg xmlns="http://www.w3.org/2000/svg" width="2724.0000000000005" height="1284">
 <!-- Created with Image Occlusion Enhanced -->
 <g>
  <title>Labels</title>
 </g>
 <g>
  <title>Masks</title>
  <rect id="071d70b218444501ba5a19de356cd04a-oa-1" height="60.52632" width="336.84211" y="110.73679" x="791.78949" stroke="#2D2D2D" fill="#0000ff"/>
  <rect id="071d70b218444501ba5a19de356cd04a-oa-2" height="31.57895" width="257.89474" y="179.15784" x="941.78949" stroke="#2D2D2D" fill="#0000ff"/>
  <rect id="071d70b218444501ba5a19de356cd04a-oa-3" height="26.31579" width="207.89474" y="223.89468" x="939.15791" stroke="#2D2D2D" fill="#0000ff"/>
  <rect id="071d70b218444501ba5a19de356cd04a-oa-4" height="34.21053" width="197.36842" y="260.73679" x="939.15791" stroke="#2D2D2D" fill="#0000ff"/>
  <rect id="071d70b218444501ba5a19de356cd04a-oa-5" height="36.84211" width="263.1579" y="305.47363" x="926.00002" stroke="#2D2D2D" fill="#0000ff"/>
  <rect id="071d70b218444501ba5a19de356cd04a-oa-6" height="50" width="136.84211" y="294.94731" x="1326.00002" stroke="#2D2D2D" fill="#0000ff"/>
  <rect id="071d70b218444501ba5a19de356cd04a-oa-7" height="42.10526" width="357.89474" y="352.84205" x="1344.42107" stroke="#2D2D2D" fill="#0000ff"/>
  <rect id="071d70b218444501ba5a19de356cd04a-oa-8" height="36.84211" width="478.94737" y="402.84205" x="1473.36844" stroke="#2D2D2D" fill="#0000ff"/>
  <rect id="071d70b218444501ba5a19de356cd04a-oa-9" height="26.31579" width="597.36842" y="447.57889" x="1465.4737" stroke="#2D2D2D" fill="#0000ff"/>
  <rect id="071d70b218444501ba5a19de356cd04a-oa-10" height="31.57895" width="663.1579" y="484.421" x="1465.4737" stroke="#2D2D2D" fill="#0000ff"/>
  <rect id="071d70b218444501ba5a19de356cd04a-oa-11" height="50" width="105.26316" y="979.15784" x="2270.73687" stroke="#2D2D2D" fill="#0000ff"/>
  <rect id="071d70b218444501ba5a19de356cd04a-oa-12" height="42.10526" width="73.68421" y="1026.52626" x="1894.42107" stroke="#2D2D2D" fill="#0000ff"/>
  <rect id="071d70b218444501ba5a19de356cd04a-oa-13" height="57.89474" width="65.78947" y="1129.15784" x="1873.36844" stroke="#2D2D2D" fill="#0000ff"/>
  <rect id="071d70b218444501ba5a19de356cd04a-oa-14" height="52.63158" width="502.63158" y="1137.05258" x="2065.47371" stroke="#2D2D2D" fill="#0000ff"/>
  <rect id="071d70b218444501ba5a19de356cd04a-oa-15" height="34.21053" width="163.1579" y="1194.94732" x="1618.10528" stroke="#2D2D2D" fill="#0000ff"/>
 </g>
</svg>