<svg xmlns="http://www.w3.org/2000/svg" width="1994" height="1032">
 <!-- Created with Image Occlusion Enhanced -->
 <g>
  <title>Labels</title>
 </g>
 <g>
  <title>Masks</title>
  <rect id="0971ac78e2b04c97a8951b3b29b8bb1c-oa-1" height="56.25" width="241.66667" y="178.4167" x="222.66666" stroke="#2D2D2D" fill="#ff7f00"/>
  <rect id="0971ac78e2b04c97a8951b3b29b8bb1c-oa-2" height="56.25" width="266.66667" y="349.25004" x="208.08333" stroke="#2D2D2D" fill="#ff7f00"/>
  <rect id="0971ac78e2b04c97a8951b3b29b8bb1c-oa-3" height="41.66667" width="227.08334" y="420.08338" x="245.58333" stroke="#2D2D2D" fill="#ff7f00"/>
  <rect id="0971ac78e2b04c97a8951b3b29b8bb1c-oa-4" height="41.66667" width="108.33334" y="476.33338" x="128.91666" stroke="#2D2D2D" fill="#ff7f00"/>
  <rect id="0971ac78e2b04c97a8951b3b29b8bb1c-oa-5" height="54.16667" width="175.00001" y="230.50004" x="151.83332" stroke="#2D2D2D" fill="#ff7f00"/>
  <rect id="0971ac78e2b04c97a8951b3b29b8bb1c-oa-6" height="47.91667" width="168.75" y="9.6667" x="1001.83335" stroke="#2D2D2D" fill="#ff7f00"/>
  <rect id="0971ac78e2b04c97a8951b3b29b8bb1c-oa-7" height="95.83334" width="145.83334" y="68.00003" x="1018.50002" stroke="#2D2D2D" fill="#ff7f00"/>
  <rect id="0971ac78e2b04c97a8951b3b29b8bb1c-oa-8" height="41.66667" width="166.66667" y="555.50005" x="1268.50002" stroke="#2D2D2D" fill="#ff7f00"/>
  <rect id="0971ac78e2b04c97a8951b3b29b8bb1c-oa-9" height="87.5" width="208.33334" y="613.83338" x="1247.66669" stroke="#2D2D2D" fill="#ff7f00"/>
  <rect id="0971ac78e2b04c97a8951b3b29b8bb1c-oa-10" height="45.83333" width="154.16667" y="647.16672" x="1081.00002" stroke="#2D2D2D" fill="#ff7f00"/>
  <rect id="0971ac78e2b04c97a8951b3b29b8bb1c-oa-11" height="89.58334" width="220.83334" y="713.83338" x="1076.83335" stroke="#2D2D2D" fill="#ff7f00"/>
  <rect id="0971ac78e2b04c97a8951b3b29b8bb1c-oa-12" height="60.41667" width="168.75" y="813.83339" x="99.74999" stroke="#2D2D2D" fill="#ff7f00"/>
  <rect id="0971ac78e2b04c97a8951b3b29b8bb1c-oa-13" height="47.91667" width="139.58334" y="897.16672" x="120.58332" stroke="#2D2D2D" fill="#ff7f00"/>
  <rect id="0971ac78e2b04c97a8951b3b29b8bb1c-oa-14" height="50" width="152.08334" y="965.91673" x="116.41666" stroke="#2D2D2D" fill="#ff7f00"/>
  <rect id="0971ac78e2b04c97a8951b3b29b8bb1c-oa-15" height="50" width="237.50001" y="822.16672" x="280.99999" stroke="#2D2D2D" fill="#ff7f00"/>
  <rect id="0971ac78e2b04c97a8951b3b29b8bb1c-oa-16" height="62.5" width="329.16668" y="886.75006" x="285.16666" stroke="#2D2D2D" fill="#ff7f00"/>
  <rect id="0971ac78e2b04c97a8951b3b29b8bb1c-oa-17" height="54.16667" width="362.50001" y="965.91673" x="285.16666" stroke="#2D2D2D" fill="#ff7f00"/>
  <rect id="0971ac78e2b04c97a8951b3b29b8bb1c-oa-18" height="52.08333" width="393.75001" y="824.25005" x="1276.83336" stroke="#2D2D2D" fill="#ff7f00"/>
  <rect id="0971ac78e2b04c97a8951b3b29b8bb1c-oa-19" height="43.75" width="479.16668" y="899.25006" x="1326.83336" stroke="#2D2D2D" fill="#ff7f00"/>
  <rect id="0971ac78e2b04c97a8951b3b29b8bb1c-oa-20" height="50" width="508.33335" y="976.33339" x="1393.50003" stroke="#2D2D2D" fill="#ff7f00"/>
 </g>
</svg>