<svg xmlns="http://www.w3.org/2000/svg" width="1535.9999999999998" height="1632">
 <!-- Created with Image Occlusion Enhanced -->
 <g>
  <title>Labels</title>
 </g>
 <g>
  <title>Masks</title>
  <rect id="1361cac4ee174dda949597805b9c98ff-oa-1" height="28.57143" width="51.42857" y="242.28564" x="524.00009" stroke="#2D2D2D" fill="#ff0000"/>
  <rect id="1361cac4ee174dda949597805b9c98ff-oa-2" height="25.71429" width="94.28572" y="245.14278" x="864.00011" stroke="#2D2D2D" fill="#ff0000"/>
  <rect id="1361cac4ee174dda949597805b9c98ff-oa-3" height="25.71429" width="77.14286" y="285.14278" x="886.85725" stroke="#2D2D2D" fill="#ff0000"/>
  <rect id="1361cac4ee174dda949597805b9c98ff-oa-4" height="22.85714" width="97.14286" y="327.99993" x="572.57152" stroke="#2D2D2D" fill="#ff0000"/>
  <rect id="1361cac4ee174dda949597805b9c98ff-oa-5" height="28.57143" width="42.85714" y="453.71422" x="889.7144" stroke="#2D2D2D" fill="#ff0000"/>
  <rect id="1361cac4ee174dda949597805b9c98ff-oa-6" height="25.71429" width="97.14286" y="456.57136" x="995.42869" stroke="#2D2D2D" fill="#ff0000"/>
  <rect id="1361cac4ee174dda949597805b9c98ff-oa-7" height="31.42857" width="105.71429" y="487.99993" x="332.57151" stroke="#2D2D2D" fill="#ff0000"/>
  <rect id="1361cac4ee174dda949597805b9c98ff-oa-8" height="22.85714" width="65.71429" y="490.85708" x="1284.00013" stroke="#2D2D2D" fill="#ff0000"/>
  <rect id="1361cac4ee174dda949597805b9c98ff-oa-9" height="17.14286" width="88.57143" y="667.99994" x="732.57153" stroke="#2D2D2D" fill="#ff0000"/>
  <rect id="1361cac4ee174dda949597805b9c98ff-oa-10" height="31.42857" width="85.71429" y="662.28565" x="1204.00012" stroke="#2D2D2D" fill="#ff0000"/>
  <rect id="1361cac4ee174dda949597805b9c98ff-oa-11" height="22.85714" width="100" y="710.85709" x="749.71439" stroke="#2D2D2D" fill="#ff0000"/>
  <rect id="1361cac4ee174dda949597805b9c98ff-oa-12" height="14.28571" width="105.71429" y="790.85709" x="509.71438" stroke="#2D2D2D" fill="#ff0000"/>
  <rect id="1361cac4ee174dda949597805b9c98ff-oa-13" height="28.57143" width="151.42858" y="865.14281" x="1221.14298" stroke="#2D2D2D" fill="#ff0000"/>
  <rect id="1361cac4ee174dda949597805b9c98ff-oa-14" height="14.28571" width="42.85714" y="910.85709" x="609.71438" stroke="#2D2D2D" fill="#ff0000"/>
  <rect id="1361cac4ee174dda949597805b9c98ff-oa-15" height="20" width="102.85715" y="1082.28567" x="586.85724" stroke="#2D2D2D" fill="#ff0000"/>
  <rect id="1361cac4ee174dda949597805b9c98ff-oa-16" height="25.71429" width="174.28572" y="999.42853" x="769.71439" stroke="#2D2D2D" fill="#ff0000"/>
  <rect id="1361cac4ee174dda949597805b9c98ff-oa-17" height="22.85714" width="62.85715" y="1210.85711" x="875.42868" stroke="#2D2D2D" fill="#ff0000"/>
  <rect id="1361cac4ee174dda949597805b9c98ff-oa-18" height="25.71429" width="34.28572" y="1250.85711" x="769.71439" stroke="#2D2D2D" fill="#ff0000"/>
  <rect id="1361cac4ee174dda949597805b9c98ff-oa-19" height="20" width="165.71429" y="1336.5714" x="489.71438" stroke="#2D2D2D" fill="#ff0000"/>
  <rect id="1361cac4ee174dda949597805b9c98ff-oa-20" height="20" width="42.85714" y="1379.42854" x="829.71439" stroke="#2D2D2D" fill="#ff0000"/>
  <rect id="1361cac4ee174dda949597805b9c98ff-oa-21" height="25.71429" width="77.14286" y="1422.28569" x="861.14297" stroke="#2D2D2D" fill="#ff0000"/>
  <rect stroke="#2D2D2D" id="1361cac4ee174dda949597805b9c98ff-oa-22" height="20" width="137.14284" y="1513.71427" x="1172.57155" fill="#ff0000"/>
 </g>
</svg>