<svg xmlns="http://www.w3.org/2000/svg" width="2080" height="1336">
 <!-- Created with Image Occlusion Enhanced -->
 <g>
  <title>Labels</title>
 </g>
 <g>
  <title>Masks</title>
  <rect id="163fc555041e442aa790c9c1f87b6675-oa-1" height="40.47619" width="121.42857" y="221.14286" x="548.5715" stroke="#2D2D2D" fill="#ff0000"/>
  <rect id="163fc555041e442aa790c9c1f87b6675-oa-2" height="30.95238" width="178.57143" y="221.14286" x="746.19056" stroke="#2D2D2D" fill="#ff0000"/>
  <rect id="163fc555041e442aa790c9c1f87b6675-oa-3" height="38.09524" width="50" y="218.76191" x="1196.19057" stroke="#2D2D2D" fill="#ff0000"/>
  <rect id="163fc555041e442aa790c9c1f87b6675-oa-4" height="40.47619" width="100" y="271.14286" x="1250.95247" stroke="#2D2D2D" fill="#ff0000"/>
  <rect id="163fc555041e442aa790c9c1f87b6675-oa-5" height="38.09524" width="76.19048" y="268.76191" x="1570.0001" stroke="#2D2D2D" fill="#ff0000"/>
  <rect id="163fc555041e442aa790c9c1f87b6675-oa-6" height="35.71429" width="123.80953" y="321.14286" x="577.14293" stroke="#2D2D2D" fill="#ff0000"/>
  <rect id="163fc555041e442aa790c9c1f87b6675-oa-7" height="30.95238" width="164.28572" y="325.90477" x="1327.14295" stroke="#2D2D2D" fill="#ff0000"/>
  <rect id="163fc555041e442aa790c9c1f87b6675-oa-8" height="73.80953" width="28.57143" y="852.09526" x="541.42864" stroke="#2D2D2D" fill="#ff0000"/>
  <rect id="163fc555041e442aa790c9c1f87b6675-oa-9" height="100" width="33.33333" y="821.14288" x="598.5715" stroke="#2D2D2D" fill="#ff0000"/>
  <rect id="163fc555041e442aa790c9c1f87b6675-oa-10" height="35.71429" width="223.80953" y="871.14288" x="731.90484" stroke="#2D2D2D" fill="#ff0000"/>
  <rect id="163fc555041e442aa790c9c1f87b6675-oa-11" height="28.57143" width="130.95238" y="1078.28574" x="1262.85724" stroke="#2D2D2D" fill="#ff0000"/>
  <rect id="163fc555041e442aa790c9c1f87b6675-oa-12" height="33.33333" width="45.2381" y="1128.28574" x="1746.19058" stroke="#2D2D2D" fill="#ff0000"/>
  <rect id="163fc555041e442aa790c9c1f87b6675-oa-13" height="28.57143" width="114.28572" y="1178.28575" x="998.57151" stroke="#2D2D2D" fill="#ff0000"/>
  <rect id="163fc555041e442aa790c9c1f87b6675-oa-14" height="23.80952" width="123.80953" y="1235.4286" x="1153.33342" stroke="#2D2D2D" fill="#ff0000"/>
  <rect id="163fc555041e442aa790c9c1f87b6675-oa-15" height="30.95238" width="223.80953" y="1275.9048" x="1615.2382" stroke="#2D2D2D" fill="#ff0000"/>
 </g>
</svg>