<svg xmlns="http://www.w3.org/2000/svg" width="1368" height="1754">
 <!-- Created with Image Occlusion Enhanced -->
 <g>
  <title>Labels</title>
 </g>
 <g>
  <title>Masks</title>
  <rect id="17338080c61e4384bd2acd3c0b0d8cbd-oa-1" height="53.57143" width="178.57143" y="13.85716" x="42.71423" stroke="#2D2D2D" fill="#ff7f00"/>
  <rect id="17338080c61e4384bd2acd3c0b0d8cbd-oa-2" height="46.42857" width="392.85715" y="74.57145" x="92.71423" stroke="#2D2D2D" fill="#ff7f00"/>
  <rect id="17338080c61e4384bd2acd3c0b0d8cbd-oa-3" height="53.57143" width="185.71429" y="146.00002" x="39.1428" stroke="#2D2D2D" fill="#ff7f00"/>
  <rect id="17338080c61e4384bd2acd3c0b0d8cbd-oa-4" height="46.42857" width="389.28572" y="213.85716" x="85.57138" stroke="#2D2D2D" fill="#ff7f00"/>
  <rect id="17338080c61e4384bd2acd3c0b0d8cbd-oa-5" height="57.14286" width="217.85715" y="317.42859" x="81.99995" stroke="#2D2D2D" fill="#ff7f00"/>
  <rect id="17338080c61e4384bd2acd3c0b0d8cbd-oa-6" height="46.42857" width="242.85715" y="549.57145" x="92.71423" stroke="#2D2D2D" fill="#ff7f00"/>
  <rect id="17338080c61e4384bd2acd3c0b0d8cbd-oa-7" height="42.85714" width="203.57143" y="681.71431" x="35.57138" stroke="#2D2D2D" fill="#ff7f00"/>
  <rect id="17338080c61e4384bd2acd3c0b0d8cbd-oa-8" height="50" width="471.42858" y="735.28574" x="85.57138" stroke="#2D2D2D" fill="#ff7f00"/>
  <rect id="17338080c61e4384bd2acd3c0b0d8cbd-oa-9" height="46.42857" width="85.71429" y="799.57145" x="92.71423" stroke="#2D2D2D" fill="#ff7f00"/>
  <rect id="17338080c61e4384bd2acd3c0b0d8cbd-oa-10" height="42.85714" width="378.57143" y="860.28574" x="99.85709" stroke="#2D2D2D" fill="#ff7f00"/>
  <rect id="17338080c61e4384bd2acd3c0b0d8cbd-oa-11" height="35.71429" width="400" y="921.00003" x="89.14281" stroke="#2D2D2D" fill="#ff7f00"/>
  <rect id="17338080c61e4384bd2acd3c0b0d8cbd-oa-12" height="42.85714" width="121.42857" y="1099.57146" x="46.28566" stroke="#2D2D2D" fill="#ff7f00"/>
  <rect id="17338080c61e4384bd2acd3c0b0d8cbd-oa-13" height="64.28571" width="464.28572" y="1199.57146" x="96.28566" stroke="#2D2D2D" fill="#ff7f00"/>
  <rect id="17338080c61e4384bd2acd3c0b0d8cbd-oa-14" height="39.28571" width="417.85715" y="1271.00003" x="103.42852" stroke="#2D2D2D" fill="#ff7f00"/>
  <rect id="17338080c61e4384bd2acd3c0b0d8cbd-oa-15" height="39.28571" width="321.42857" y="1456.71432" x="46.28566" stroke="#2D2D2D" fill="#ff7f00"/>
  <rect stroke="#2D2D2D" id="17338080c61e4384bd2acd3c0b0d8cbd-oa-16" height="35.71429" width="328.57143" y="1517.42862" x="81.99995" fill="#ff7f00"/>
  <rect stroke="#2D2D2D" id="17338080c61e4384bd2acd3c0b0d8cbd-oa-17" height="28.57143" width="157.14286" y="1574.57145" x="96.28566" fill="#ff7f00"/>
 </g>
</svg>