<svg xmlns="http://www.w3.org/2000/svg" width="2150" height="1782">
 <!-- Created with Image Occlusion Enhanced -->
 <g>
  <title>Labels</title>
 </g>
 <g>
  <title>Masks</title>
  <rect id="1efbc6457c91404c88a6d28abbcb0f20-oa-1" height="46.42857" width="64.28572" y="168.00003" x="614.28571" stroke="#2D2D2D" fill="#0000ff"/>
  <rect id="1efbc6457c91404c88a6d28abbcb0f20-oa-2" height="46.42857" width="117.85714" y="389.42861" x="607.14285" stroke="#2D2D2D" fill="#0000ff"/>
  <rect id="1efbc6457c91404c88a6d28abbcb0f20-oa-3" height="28.57143" width="114.28572" y="621.57147" x="764.28571" stroke="#2D2D2D" fill="#0000ff"/>
  <rect id="1efbc6457c91404c88a6d28abbcb0f20-oa-4" height="32.14286" width="53.57143" y="839.42862" x="689.28571" stroke="#2D2D2D" fill="#0000ff"/>
  <rect id="1efbc6457c91404c88a6d28abbcb0f20-oa-5" height="35.71429" width="100" y="1064.42862" x="614.28571" stroke="#2D2D2D" fill="#0000ff"/>
  <rect id="1efbc6457c91404c88a6d28abbcb0f20-oa-6" height="39.28571" width="153.57143" y="1060.85719" x="1321.42858" stroke="#2D2D2D" fill="#0000ff"/>
  <rect id="1efbc6457c91404c88a6d28abbcb0f20-oa-7" height="71.42857" width="121.42857" y="835.85719" x="1317.85715" stroke="#2D2D2D" fill="#0000ff"/>
  <rect id="1efbc6457c91404c88a6d28abbcb0f20-oa-8" height="28.57143" width="57.14286" y="621.57147" x="1478.57144" stroke="#2D2D2D" fill="#0000ff"/>
  <rect id="1efbc6457c91404c88a6d28abbcb0f20-oa-9" height="35.71429" width="103.57143" y="393.00004" x="1314.28572" stroke="#2D2D2D" fill="#0000ff"/>
  <rect id="1efbc6457c91404c88a6d28abbcb0f20-oa-10" height="35.71429" width="96.42857" y="171.57146" x="1321.42858" stroke="#2D2D2D" fill="#0000ff"/>
  <rect id="1efbc6457c91404c88a6d28abbcb0f20-oa-11" height="35.71429" width="85.71429" y="618.00004" x="367.85713" stroke="#2D2D2D" fill="#0000ff"/>
  <rect id="1efbc6457c91404c88a6d28abbcb0f20-oa-12" height="39.28571" width="164.28572" y="1325.14291" x="332.14284" stroke="#2D2D2D" fill="#0000ff"/>
  <rect id="1efbc6457c91404c88a6d28abbcb0f20-oa-13" height="28.57143" width="164.28572" y="1310.8572" x="607.14285" stroke="#2D2D2D" fill="#0000ff"/>
  <rect id="1efbc6457c91404c88a6d28abbcb0f20-oa-14" height="28.57143" width="225" y="1310.8572" x="1425.00001" stroke="#2D2D2D" fill="#0000ff"/>
  <rect id="1efbc6457c91404c88a6d28abbcb0f20-oa-15" height="32.14286" width="146.42857" y="1625.14292" x="339.2857" stroke="#2D2D2D" fill="#0000ff"/>
  <rect id="1efbc6457c91404c88a6d28abbcb0f20-oa-16" height="32.14286" width="178.57143" y="1560.8572" x="682.14285" stroke="#2D2D2D" fill="#0000ff"/>
  <rect id="1efbc6457c91404c88a6d28abbcb0f20-oa-17" height="32.14286" width="85.71429" y="1560.8572" x="1382.14286" stroke="#2D2D2D" fill="#0000ff"/>
 </g>
</svg>