<svg xmlns="http://www.w3.org/2000/svg" width="2562" height="1494">
 <!-- Created with Image Occlusion Enhanced -->
 <g>
  <title>Labels</title>
 </g>
 <g>
  <title>Masks</title>
  <rect id="27378c791a69400dbcf01196dc07ab3b-oa-1" height="48.48485" width="351.51516" y="336.30307" x="319.81806" stroke="#2D2D2D" fill="#ff7f00"/>
  <rect id="27378c791a69400dbcf01196dc07ab3b-oa-2" height="48.48485" width="333.33334" y="490.84853" x="328.90897" stroke="#2D2D2D" fill="#ff7f00"/>
  <rect id="27378c791a69400dbcf01196dc07ab3b-oa-3" height="48.48485" width="290.9091" y="551.45459" x="368.30291" stroke="#2D2D2D" fill="#ff7f00"/>
  <rect id="27378c791a69400dbcf01196dc07ab3b-oa-4" height="60.60606" width="284.84849" y="645.39399" x="389.51503" stroke="#2D2D2D" fill="#ff7f00"/>
  <rect id="27378c791a69400dbcf01196dc07ab3b-oa-5" height="45.45455" width="348.48486" y="748.42429" x="313.75745" stroke="#2D2D2D" fill="#ff7f00"/>
  <rect id="27378c791a69400dbcf01196dc07ab3b-oa-6" height="45.45455" width="342.42425" y="972.66672" x="313.75745" stroke="#2D2D2D" fill="#ff7f00"/>
  <rect id="27378c791a69400dbcf01196dc07ab3b-oa-7" height="42.42424" width="242.42425" y="1042.36369" x="422.84837" stroke="#2D2D2D" fill="#ff7f00"/>
  <rect id="27378c791a69400dbcf01196dc07ab3b-oa-8" height="51.51515" width="333.33334" y="1154.48491" x="322.84836" stroke="#2D2D2D" fill="#ff7f00"/>
  <rect id="27378c791a69400dbcf01196dc07ab3b-oa-9" height="54.54546" width="278.78789" y="87.81822" x="768.30292" stroke="#2D2D2D" fill="#ff7f00"/>
  <rect id="27378c791a69400dbcf01196dc07ab3b-oa-10" height="54.54546" width="172.72728" y="90.84852" x="1128.90899" stroke="#2D2D2D" fill="#ff7f00"/>
  <rect id="27378c791a69400dbcf01196dc07ab3b-oa-11" height="54.54546" width="184.84849" y="87.81822" x="1389.51505" stroke="#2D2D2D" fill="#ff7f00"/>
  <rect id="27378c791a69400dbcf01196dc07ab3b-oa-12" height="112.12121" width="339.39395" y="342.36368" x="2034.96961" stroke="#2D2D2D" fill="#ff7f00"/>
  <rect id="27378c791a69400dbcf01196dc07ab3b-oa-13" height="57.57576" width="221.21213" y="518.12126" x="2034.96961" stroke="#2D2D2D" fill="#ff7f00"/>
  <rect id="27378c791a69400dbcf01196dc07ab3b-oa-14" height="54.54546" width="342.42425" y="757.5152" x="2037.99992" stroke="#2D2D2D" fill="#ff7f00"/>
  <rect id="27378c791a69400dbcf01196dc07ab3b-oa-15" height="54.54546" width="348.48486" y="942.36369" x="2041.03022" stroke="#2D2D2D" fill="#ff7f00"/>
  <rect id="27378c791a69400dbcf01196dc07ab3b-oa-16" height="57.57576" width="315.15152" y="1021.15157" x="2037.99992" stroke="#2D2D2D" fill="#ff7f00"/>
  <rect id="27378c791a69400dbcf01196dc07ab3b-oa-17" height="63.63637" width="236.36364" y="1130.24248" x="2053.15143" stroke="#2D2D2D" fill="#ff7f00"/>
  <rect id="27378c791a69400dbcf01196dc07ab3b-oa-18" height="42.42424" width="454.54546" y="1287.81824" x="2016.7878" stroke="#2D2D2D" fill="#ff7f00"/>
  <rect id="27378c791a69400dbcf01196dc07ab3b-oa-19" height="112.12121" width="303.03031" y="1354.48491" x="2031.93931" stroke="#2D2D2D" fill="#ff7f00"/>
 </g>
</svg>