<svg xmlns="http://www.w3.org/2000/svg" width="1996.0000000000002" height="1762">
 <!-- Created with Image Occlusion Enhanced -->
 <g>
  <title>Labels</title>
 </g>
 <g>
  <title>Masks</title>
  <rect id="2a21dd682d1a4c10b271ccf18b336368-oa-1" height="57.14286" width="264.28572" y="2.28577" x="696.85711" stroke="#2D2D2D" fill="#ff7f00"/>
  <rect id="2a21dd682d1a4c10b271ccf18b336368-oa-2" height="35.71429" width="150" y="59.42863" x="218.28566" stroke="#2D2D2D" fill="#ff7f00"/>
  <rect id="2a21dd682d1a4c10b271ccf18b336368-oa-3" height="57.14286" width="89.28572" y="198.71434" x="132.57138" stroke="#2D2D2D" fill="#ff7f00"/>
  <rect id="2a21dd682d1a4c10b271ccf18b336368-oa-4" height="42.85714" width="275.00001" y="391.57149" x="100.42852" stroke="#2D2D2D" fill="#ff7f00"/>
  <rect id="2a21dd682d1a4c10b271ccf18b336368-oa-5" height="50" width="250.00001" y="516.5715" x="100.42852" stroke="#2D2D2D" fill="#ff7f00"/>
  <rect id="2a21dd682d1a4c10b271ccf18b336368-oa-6" height="39.28572" width="200.00001" y="695.14293" x="107.57138" stroke="#2D2D2D" fill="#ff7f00"/>
  <rect id="2a21dd682d1a4c10b271ccf18b336368-oa-7" height="32.14286" width="110.71429" y="795.14293" x="100.42852" stroke="#2D2D2D" fill="#ff7f00"/>
  <rect id="2a21dd682d1a4c10b271ccf18b336368-oa-8" height="32.14286" width="175.00001" y="852.28579" x="121.85709" stroke="#2D2D2D" fill="#ff7f00"/>
  <rect id="2a21dd682d1a4c10b271ccf18b336368-oa-9" height="39.28572" width="196.42858" y="948.71437" x="107.57138" stroke="#2D2D2D" fill="#ff7f00"/>
  <rect id="2a21dd682d1a4c10b271ccf18b336368-oa-10" height="167.85715" width="214.28572" y="1180.85723" x="121.85709" stroke="#2D2D2D" fill="#ff7f00"/>
  <rect id="2a21dd682d1a4c10b271ccf18b336368-oa-11" height="46.42857" width="160.71429" y="1448.71438" x="121.85709" stroke="#2D2D2D" fill="#ff7f00"/>
  <rect id="2a21dd682d1a4c10b271ccf18b336368-oa-12" height="67.85714" width="203.57143" y="1070.14294" x="1518.2857" stroke="#2D2D2D" fill="#ff7f00"/>
  <rect id="2a21dd682d1a4c10b271ccf18b336368-oa-13" height="46.42857" width="150" y="973.71437" x="1507.57142" stroke="#2D2D2D" fill="#ff7f00"/>
  <rect id="2a21dd682d1a4c10b271ccf18b336368-oa-14" height="85.71429" width="210.71429" y="884.42865" x="1557.57142" stroke="#2D2D2D" fill="#ff7f00"/>
  <rect id="2a21dd682d1a4c10b271ccf18b336368-oa-15" height="42.85714" width="182.14286" y="816.57151" x="1532.57142" stroke="#2D2D2D" fill="#ff7f00"/>
  <rect id="2a21dd682d1a4c10b271ccf18b336368-oa-16" height="50" width="225.00001" y="745.14293" x="1528.99999" stroke="#2D2D2D" fill="#ff7f00"/>
  <rect id="2a21dd682d1a4c10b271ccf18b336368-oa-17" height="32.14286" width="107.14286" y="677.28579" x="1525.42856" stroke="#2D2D2D" fill="#ff7f00"/>
  <rect id="2a21dd682d1a4c10b271ccf18b336368-oa-18" height="39.28572" width="289.28572" y="541.5715" x="1471.85713" stroke="#2D2D2D" fill="#ff7f00"/>
  <rect id="2a21dd682d1a4c10b271ccf18b336368-oa-19" height="46.42857" width="128.57143" y="295.14292" x="1496.85713" stroke="#2D2D2D" fill="#ff7f00"/>
 </g>
</svg>