<svg xmlns="http://www.w3.org/2000/svg" width="2846" height="1544">
 <!-- Created with Image Occlusion Enhanced -->
 <g>
  <title>Labels</title>
 </g>
 <g>
  <title>Masks</title>
  <rect id="38af9b8ce8d64c969f01baa2f28c869a-oa-1" height="137.5" width="481.25002" y="9.12504" x="113.3751" stroke="#2D2D2D" fill="#ff0000"/>
  <rect id="38af9b8ce8d64c969f01baa2f28c869a-oa-2" height="175.00001" width="465.62501" y="215.37505" x="72.75009" stroke="#2D2D2D" fill="#ff0000"/>
  <rect id="38af9b8ce8d64c969f01baa2f28c869a-oa-3" height="175.00001" width="481.25002" y="434.12505" x="19.62509" stroke="#2D2D2D" fill="#ff0000"/>
  <rect id="38af9b8ce8d64c969f01baa2f28c869a-oa-4" height="178.12501" width="437.50001" y="652.87506" x="22.75009" stroke="#2D2D2D" fill="#ff0000"/>
  <rect id="38af9b8ce8d64c969f01baa2f28c869a-oa-5" height="103.125" width="453.12501" y="890.37507" x="44.62509" stroke="#2D2D2D" fill="#ff0000"/>
  <rect id="38af9b8ce8d64c969f01baa2f28c869a-oa-6" height="109.375" width="343.75001" y="1077.87507" x="147.7501" stroke="#2D2D2D" fill="#ff0000"/>
  <rect id="38af9b8ce8d64c969f01baa2f28c869a-oa-7" height="109.375" width="309.37501" y="1246.62508" x="204.0001" stroke="#2D2D2D" fill="#ff0000"/>
  <rect id="38af9b8ce8d64c969f01baa2f28c869a-oa-8" height="71.875" width="287.50001" y="1421.62508" x="282.1251" stroke="#2D2D2D" fill="#ff0000"/>
  <rect id="38af9b8ce8d64c969f01baa2f28c869a-oa-9" height="84.375" width="400.00001" y="1427.87508" x="2182.12516" stroke="#2D2D2D" fill="#ff0000"/>
  <rect id="38af9b8ce8d64c969f01baa2f28c869a-oa-10" height="112.5" width="428.12501" y="1274.75008" x="2222.75016" stroke="#2D2D2D" fill="#ff0000"/>
  <rect id="38af9b8ce8d64c969f01baa2f28c869a-oa-11" height="65.625" width="253.12501" y="1168.50008" x="2282.12516" stroke="#2D2D2D" fill="#ff0000"/>
  <rect id="38af9b8ce8d64c969f01baa2f28c869a-oa-12" height="56.25" width="471.87502" y="1065.37507" x="2338.37517" stroke="#2D2D2D" fill="#ff0000"/>
  <rect id="38af9b8ce8d64c969f01baa2f28c869a-oa-13" height="68.75" width="321.87501" y="956.00007" x="2329.00017" stroke="#2D2D2D" fill="#ff0000"/>
  <rect id="38af9b8ce8d64c969f01baa2f28c869a-oa-14" height="125" width="331.25001" y="799.75006" x="2341.50017" stroke="#2D2D2D" fill="#ff0000"/>
  <rect id="38af9b8ce8d64c969f01baa2f28c869a-oa-15" height="106.25" width="453.12501" y="646.62506" x="2332.12517" stroke="#2D2D2D" fill="#ff0000"/>
  <rect id="38af9b8ce8d64c969f01baa2f28c869a-oa-16" height="153.125" width="309.37501" y="449.75005" x="2316.50017" stroke="#2D2D2D" fill="#ff0000"/>
  <rect id="38af9b8ce8d64c969f01baa2f28c869a-oa-17" height="146.875" width="290.62501" y="246.62505" x="2263.37516" stroke="#2D2D2D" fill="#ff0000"/>
  <rect id="38af9b8ce8d64c969f01baa2f28c869a-oa-18" height="50" width="378.12501" y="149.75004" x="2222.75016" stroke="#2D2D2D" fill="#ff0000"/>
  <rect id="38af9b8ce8d64c969f01baa2f28c869a-oa-19" height="96.875" width="456.25001" y="9.12504" x="2166.50016" stroke="#2D2D2D" fill="#ff0000"/>
 </g>
</svg>