<svg xmlns="http://www.w3.org/2000/svg" width="2208" height="974">
 <!-- Created with Image Occlusion Enhanced -->
 <g>
  <title>Labels</title>
 </g>
 <g>
  <title>Masks</title>
  <rect id="3e7bfee5ec264e88a6bd540d43debe81-oa-1" height="39.58333" width="177.08334" y="126.00002" x="104.50007" stroke="#2D2D2D" fill="#007fff"/>
  <rect id="3e7bfee5ec264e88a6bd540d43debe81-oa-2" height="29.16667" width="100" y="134.33336" x="542.00009" stroke="#2D2D2D" fill="#007fff"/>
  <rect id="3e7bfee5ec264e88a6bd540d43debe81-oa-3" height="39.58333" width="231.25001" y="134.33336" x="975.33344" stroke="#2D2D2D" fill="#007fff"/>
  <rect id="3e7bfee5ec264e88a6bd540d43debe81-oa-4" height="39.58333" width="220.83334" y="126.00002" x="1377.41678" stroke="#2D2D2D" fill="#007fff"/>
  <rect id="3e7bfee5ec264e88a6bd540d43debe81-oa-5" height="39.58333" width="118.75" y="130.16669" x="1746.16679" stroke="#2D2D2D" fill="#007fff"/>
  <rect id="3e7bfee5ec264e88a6bd540d43debe81-oa-6" height="39.58333" width="241.66667" y="317.66669" x="158.66674" stroke="#2D2D2D" fill="#007fff"/>
  <rect id="3e7bfee5ec264e88a6bd540d43debe81-oa-7" height="35.41667" width="283.33334" y="317.6667" x="548.25009" stroke="#2D2D2D" fill="#007fff"/>
  <rect id="3e7bfee5ec264e88a6bd540d43debe81-oa-8" height="39.58333" width="260.41668" y="315.58336" x="956.58344" stroke="#2D2D2D" fill="#007fff"/>
  <rect id="3e7bfee5ec264e88a6bd540d43debe81-oa-9" height="72.91667" width="260.41668" y="278.08336" x="1356.58345" stroke="#2D2D2D" fill="#007fff"/>
  <rect id="3e7bfee5ec264e88a6bd540d43debe81-oa-10" height="50" width="133.33334" y="311.4167" x="1817.00013" stroke="#2D2D2D" fill="#007fff"/>
  <rect id="3e7bfee5ec264e88a6bd540d43debe81-oa-11" height="35.41667" width="172.91667" y="534.33337" x="189.91674" stroke="#2D2D2D" fill="#007fff"/>
  <rect id="3e7bfee5ec264e88a6bd540d43debe81-oa-12" height="35.41667" width="1445.83338" y="534.33337" x="583.66676" stroke="#2D2D2D" fill="#007fff"/>
  <rect id="3e7bfee5ec264e88a6bd540d43debe81-oa-13" height="33.33333" width="135.41667" y="676.00004" x="298.25008" stroke="#2D2D2D" fill="#007fff"/>
  <rect id="3e7bfee5ec264e88a6bd540d43debe81-oa-14" height="31.25" width="160.41667" y="830.16671" x="279.50008" stroke="#2D2D2D" fill="#007fff"/>
  <rect id="3e7bfee5ec264e88a6bd540d43debe81-oa-15" height="27.08333" width="112.5" y="871.83338" x="310.75008" stroke="#2D2D2D" fill="#007fff"/>
  <rect id="3e7bfee5ec264e88a6bd540d43debe81-oa-16" height="64.58334" width="172.91667" y="669.75004" x="677.41676" stroke="#2D2D2D" fill="#007fff"/>
  <rect id="3e7bfee5ec264e88a6bd540d43debe81-oa-17" height="25" width="172.91667" y="832.25005" x="677.41676" stroke="#2D2D2D" fill="#007fff"/>
  <rect id="3e7bfee5ec264e88a6bd540d43debe81-oa-18" height="33.33333" width="150" y="667.66671" x="1083.66677" stroke="#2D2D2D" fill="#007fff"/>
  <rect id="3e7bfee5ec264e88a6bd540d43debe81-oa-19" height="35.41667" width="145.83334" y="828.08338" x="1081.58344" stroke="#2D2D2D" fill="#007fff"/>
  <rect id="3e7bfee5ec264e88a6bd540d43debe81-oa-20" height="31.25" width="185.41667" y="667.66671" x="1460.75012" stroke="#2D2D2D" fill="#007fff"/>
  <rect id="3e7bfee5ec264e88a6bd540d43debe81-oa-21" height="37.5" width="172.91667" y="819.75005" x="1475.33345" stroke="#2D2D2D" fill="#007fff"/>
  <rect id="3e7bfee5ec264e88a6bd540d43debe81-oa-22" height="70.83334" width="164.58334" y="669.75004" x="1898.25013" stroke="#2D2D2D" fill="#007fff"/>
  <rect id="3e7bfee5ec264e88a6bd540d43debe81-oa-23" height="43.75" width="166.66667" y="817.66671" x="1902.4168" stroke="#2D2D2D" fill="#007fff"/>
 </g>
</svg>