<svg xmlns="http://www.w3.org/2000/svg" width="1936" height="1068">
 <!-- Created with Image Occlusion Enhanced -->
 <g>
  <title>Labels</title>
 </g>
 <g>
  <title>Masks</title>
  <rect id="3ed9cccddd2e48e28a526721a470e1ad-oa-1" height="39.13043" width="186.95652" y="125.47826" x="583.56522" stroke="#2D2D2D" fill="#ff0000"/>
  <rect id="3ed9cccddd2e48e28a526721a470e1ad-oa-2" height="43.47826" width="128.26087" y="188.52174" x="1457.47827" stroke="#2D2D2D" fill="#ff0000"/>
  <rect id="3ed9cccddd2e48e28a526721a470e1ad-oa-3" height="43.47826" width="184.78261" y="242.86957" x="1537.91305" stroke="#2D2D2D" fill="#ff0000"/>
  <rect id="3ed9cccddd2e48e28a526721a470e1ad-oa-4" height="30.43478" width="186.95652" y="371.13044" x="394.43479" stroke="#2D2D2D" fill="#ff0000"/>
  <rect id="3ed9cccddd2e48e28a526721a470e1ad-oa-5" height="34.78261" width="141.30435" y="429.82609" x="398.78262" stroke="#2D2D2D" fill="#ff0000"/>
  <rect id="3ed9cccddd2e48e28a526721a470e1ad-oa-6" height="32.6087" width="232.6087" y="484.17392" x="392.26088" stroke="#2D2D2D" fill="#ff0000"/>
  <rect id="3ed9cccddd2e48e28a526721a470e1ad-oa-7" height="23.91304" width="163.04348" y="551.56522" x="390.08696" stroke="#2D2D2D" fill="#ff0000"/>
  <rect id="3ed9cccddd2e48e28a526721a470e1ad-oa-8" height="26.08696" width="104.34783" y="368.95653" x="1209.65218" stroke="#2D2D2D" fill="#ff0000"/>
  <rect id="3ed9cccddd2e48e28a526721a470e1ad-oa-9" height="28.26087" width="265.21739" y="427.65218" x="1200.95653" stroke="#2D2D2D" fill="#ff0000"/>
  <rect id="3ed9cccddd2e48e28a526721a470e1ad-oa-10" height="28.26087" width="308.69565" y="490.69566" x="1196.6087" stroke="#2D2D2D" fill="#ff0000"/>
  <rect id="3ed9cccddd2e48e28a526721a470e1ad-oa-11" height="34.78261" width="226.08696" y="549.39131" x="1205.30436" stroke="#2D2D2D" fill="#ff0000"/>
  <rect id="3ed9cccddd2e48e28a526721a470e1ad-oa-12" height="39.13043" width="93.47826" y="658.08696" x="505.30435" stroke="#2D2D2D" fill="#ff0000"/>
  <rect id="3ed9cccddd2e48e28a526721a470e1ad-oa-13" height="43.47826" width="184.78261" y="716.78261" x="1435.73914" stroke="#2D2D2D" fill="#ff0000"/>
  <rect id="3ed9cccddd2e48e28a526721a470e1ad-oa-14" height="34.78261" width="208.69565" y="777.65218" x="305.30435" stroke="#2D2D2D" fill="#ff0000"/>
  <rect id="3ed9cccddd2e48e28a526721a470e1ad-oa-15" height="32.6087" width="186.95652" y="829.82609" x="664.00001" stroke="#2D2D2D" fill="#ff0000"/>
  <rect id="3ed9cccddd2e48e28a526721a470e1ad-oa-16" height="34.78261" width="186.95652" y="827.65218" x="1579.2174" stroke="#2D2D2D" fill="#ff0000"/>
  <rect id="3ed9cccddd2e48e28a526721a470e1ad-oa-17" height="34.78261" width="110.86957" y="888.52174" x="1246.6087" stroke="#2D2D2D" fill="#ff0000"/>
  <rect id="3ed9cccddd2e48e28a526721a470e1ad-oa-18" height="39.13043" width="173.91304" y="949.39131" x="1264.00001" stroke="#2D2D2D" fill="#ff0000"/>
  <rect id="3ed9cccddd2e48e28a526721a470e1ad-oa-19" height="34.78261" width="219.56522" y="1014.6087" x="979.2174" stroke="#2D2D2D" fill="#ff0000"/>
 </g>
</svg>