<svg xmlns="http://www.w3.org/2000/svg" width="2616" height="1054">
 <!-- Created with Image Occlusion Enhanced -->
 <g>
  <title>Labels</title>
 </g>
 <g>
  <title>Masks</title>
  <rect id="419dc9d5e672437d8fa76e32c1c2d155-oa-1" height="52.5" width="320" y="38.49998" x="116.49993" stroke="#2D2D2D" fill="#ff7f00"/>
  <rect id="419dc9d5e672437d8fa76e32c1c2d155-oa-2" height="40" width="70" y="130.99998" x="491.49992" stroke="#2D2D2D" fill="#ff7f00"/>
  <rect id="419dc9d5e672437d8fa76e32c1c2d155-oa-3" height="82.5" width="122.5" y="240.99998" x="458.99992" stroke="#2D2D2D" fill="#ff7f00"/>
  <rect id="419dc9d5e672437d8fa76e32c1c2d155-oa-4" height="70" width="205" y="445.99998" x="413.99992" stroke="#2D2D2D" fill="#ff7f00"/>
  <rect id="419dc9d5e672437d8fa76e32c1c2d155-oa-5" height="40" width="155" y="613.49998" x="448.99992" stroke="#2D2D2D" fill="#ff7f00"/>
  <rect id="419dc9d5e672437d8fa76e32c1c2d155-oa-6" height="87.5" width="190" y="723.49997" x="431.49992" stroke="#2D2D2D" fill="#ff7f00"/>
  <rect id="419dc9d5e672437d8fa76e32c1c2d155-oa-7" height="87.5" width="275" y="638.49998" x="991.49991" stroke="#2D2D2D" fill="#ff7f00"/>
  <rect id="419dc9d5e672437d8fa76e32c1c2d155-oa-8" height="27.5" width="147.5" y="938.49997" x="183.99992" stroke="#2D2D2D" fill="#ff7f00"/>
  <rect id="419dc9d5e672437d8fa76e32c1c2d155-oa-9" height="40" width="327.5" y="145.99998" x="1953.9999" stroke="#2D2D2D" fill="#ff7f00"/>
  <rect id="419dc9d5e672437d8fa76e32c1c2d155-oa-10" height="50" width="412.49999" y="378.49998" x="1953.9999" stroke="#2D2D2D" fill="#ff7f00"/>
  <rect id="419dc9d5e672437d8fa76e32c1c2d155-oa-11" height="32.5" width="230" y="195.99998" x="1991.4999" stroke="#2D2D2D" fill="#ff7f00"/>
  <rect id="419dc9d5e672437d8fa76e32c1c2d155-oa-12" height="37.5" width="185" y="243.49998" x="1998.9999" stroke="#2D2D2D" fill="#ff7f00"/>
  <rect id="419dc9d5e672437d8fa76e32c1c2d155-oa-13" height="32.5" width="122.5" y="293.49998" x="2008.9999" stroke="#2D2D2D" fill="#ff7f00"/>
  <rect id="419dc9d5e672437d8fa76e32c1c2d155-oa-14" height="37.5" width="220" y="433.49998" x="1998.9999" stroke="#2D2D2D" fill="#ff7f00"/>
  <rect id="419dc9d5e672437d8fa76e32c1c2d155-oa-15" height="30" width="190" y="480.99998" x="2001.4999" stroke="#2D2D2D" fill="#ff7f00"/>
 </g>
</svg>