<svg xmlns="http://www.w3.org/2000/svg" width="2222" height="1264">
 <!-- Created with Image Occlusion Enhanced -->
 <g>
  <title>Labels</title>
 </g>
 <g>
  <title>Masks</title>
  <rect id="4d044eef2b9844a69d5951a6d1dad0be-oa-1" height="43.58974" width="300.00001" y="20.61541" x="629.28198" stroke="#2D2D2D" fill="#ff0000"/>
  <rect id="4d044eef2b9844a69d5951a6d1dad0be-oa-2" height="48.71795" width="282.05129" y="202.66669" x="636.97429" stroke="#2D2D2D" fill="#ff0000"/>
  <rect id="4d044eef2b9844a69d5951a6d1dad0be-oa-3" height="100" width="315.38462" y="387.28208" x="690.82044" stroke="#2D2D2D" fill="#ff0000"/>
  <rect id="4d044eef2b9844a69d5951a6d1dad0be-oa-4" height="87.17949" width="282.05129" y="487.28208" x="290.82043" stroke="#2D2D2D" fill="#ff0000"/>
  <rect id="4d044eef2b9844a69d5951a6d1dad0be-oa-5" height="43.58974" width="117.94872" y="597.53849" x="216.46146" stroke="#2D2D2D" fill="#ff0000"/>
  <rect id="4d044eef2b9844a69d5951a6d1dad0be-oa-6" height="100" width="271.79488" y="651.38465" x="503.64095" stroke="#2D2D2D" fill="#ff0000"/>
  <rect id="4d044eef2b9844a69d5951a6d1dad0be-oa-7" height="92.30769" width="166.66667" y="594.97439" x="1070.30763" stroke="#2D2D2D" fill="#ff0000"/>
  <rect id="4d044eef2b9844a69d5951a6d1dad0be-oa-8" height="46.15385" width="246.15385" y="436.00003" x="1206.20506" stroke="#2D2D2D" fill="#ff0000"/>
  <rect id="4d044eef2b9844a69d5951a6d1dad0be-oa-9" height="107.69231" width="438.46155" y="659.07696" x="1647.23071" stroke="#2D2D2D" fill="#ff0000"/>
  <rect id="4d044eef2b9844a69d5951a6d1dad0be-oa-10" height="38.46154" width="315.38462" y="987.28209" x="1336.9743" stroke="#2D2D2D" fill="#ff0000"/>
  <rect id="4d044eef2b9844a69d5951a6d1dad0be-oa-11" height="92.30769" width="271.79488" y="1102.66671" x="1095.94865" stroke="#2D2D2D" fill="#ff0000"/>
  <rect id="4d044eef2b9844a69d5951a6d1dad0be-oa-12" height="46.15385" width="274.35898" y="1012.92312" x="821.58967" stroke="#2D2D2D" fill="#ff0000"/>
  <rect id="4d044eef2b9844a69d5951a6d1dad0be-oa-13" height="58.97436" width="241.02565" y="1177.02568" x="719.02557" stroke="#2D2D2D" fill="#ff0000"/>
  <rect id="4d044eef2b9844a69d5951a6d1dad0be-oa-14" height="164.10257" width="200" y="861.64106" x="447.23069" stroke="#2D2D2D" fill="#ff0000"/>
  <rect id="4d044eef2b9844a69d5951a6d1dad0be-oa-15" height="97.4359" width="264.10257" y="112.9231" x="1339.5384" stroke="#2D2D2D" fill="#ff0000"/>
 </g>
</svg>