<svg xmlns="http://www.w3.org/2000/svg" width="2078" height="1580">
 <!-- Created with Image Occlusion Enhanced -->
 <g>
  <title>Labels</title>
 </g>
 <g>
  <title>Masks</title>
  <rect id="4e986d19359a4660adeb5faf56e8f7e0-oa-1" height="36.11111" width="47.22222" y="128.33337" x="780.33326" stroke="#2D2D2D" fill="#ff0000"/>
  <rect id="4e986d19359a4660adeb5faf56e8f7e0-oa-2" height="27.77778" width="127.77778" y="136.6667" x="1246.99993" stroke="#2D2D2D" fill="#ff0000"/>
  <rect id="4e986d19359a4660adeb5faf56e8f7e0-oa-3" height="22.22222" width="180.55556" y="247.77782" x="1030.33326" stroke="#2D2D2D" fill="#ff0000"/>
  <rect id="4e986d19359a4660adeb5faf56e8f7e0-oa-4" height="33.33333" width="116.66667" y="367.22226" x="1144.22215" stroke="#2D2D2D" fill="#ff0000"/>
  <rect id="4e986d19359a4660adeb5faf56e8f7e0-oa-5" height="30.55556" width="100" y="420.00004" x="324.77769" stroke="#2D2D2D" fill="#ff0000"/>
  <rect id="4e986d19359a4660adeb5faf56e8f7e0-oa-6" height="44.44445" width="50" y="581.11116" x="1313.6666" stroke="#2D2D2D" fill="#ff0000"/>
  <rect id="4e986d19359a4660adeb5faf56e8f7e0-oa-7" height="36.11111" width="186.11112" y="708.88894" x="474.77769" stroke="#2D2D2D" fill="#ff0000"/>
  <rect id="4e986d19359a4660adeb5faf56e8f7e0-oa-8" height="30.55556" width="113.88889" y="972.77783" x="402.55547" stroke="#2D2D2D" fill="#ff0000"/>
  <rect id="4e986d19359a4660adeb5faf56e8f7e0-oa-9" height="25" width="130.55556" y="1031.11117" x="635.88881" stroke="#2D2D2D" fill="#ff0000"/>
  <rect id="4e986d19359a4660adeb5faf56e8f7e0-oa-10" height="22.22222" width="186.11112" y="1139.4445" x="1038.6666" stroke="#2D2D2D" fill="#ff0000"/>
  <rect id="4e986d19359a4660adeb5faf56e8f7e0-oa-11" height="30.55556" width="27.77778" y="1236.66673" x="769.22215" stroke="#2D2D2D" fill="#ff0000"/>
  <rect id="4e986d19359a4660adeb5faf56e8f7e0-oa-12" height="30.55556" width="63.88889" y="1236.66673" x="1258.11104" stroke="#2D2D2D" fill="#ff0000"/>
  <rect id="4e986d19359a4660adeb5faf56e8f7e0-oa-13" height="25" width="177.77778" y="1283.88895" x="527.55547" stroke="#2D2D2D" fill="#ff0000"/>
  <rect id="4e986d19359a4660adeb5faf56e8f7e0-oa-14" height="30.55556" width="116.66667" y="1378.3334" x="1191.44438" stroke="#2D2D2D" fill="#ff0000"/>
  <rect id="4e986d19359a4660adeb5faf56e8f7e0-oa-15" height="27.77778" width="69.44445" y="1425.55562" x="1063.6666" stroke="#2D2D2D" fill="#ff0000"/>
  <rect id="4e986d19359a4660adeb5faf56e8f7e0-oa-16" height="27.77778" width="100" y="1536.66673" x="921.99993" stroke="#2D2D2D" fill="#ff0000"/>
 </g>
</svg>