<svg xmlns="http://www.w3.org/2000/svg" width="2336" height="1716">
 <!-- Created with Image Occlusion Enhanced -->
 <g>
  <title>Labels</title>
 </g>
 <g>
  <title>Masks</title>
  <rect id="558a76e4047147d0a3c1e09b3e5fbe60-oa-1" height="51.72414" width="410.34483" y="142.62062" x="1101.93102" stroke="#2D2D2D" fill="#ff0000"/>
  <rect id="558a76e4047147d0a3c1e09b3e5fbe60-oa-2" height="51.72414" width="306.89655" y="142.62062" x="1708.82757" stroke="#2D2D2D" fill="#ff0000"/>
  <rect id="558a76e4047147d0a3c1e09b3e5fbe60-oa-3" height="48.27586" width="482.75862" y="208.13786" x="805.3793" stroke="#2D2D2D" fill="#ff0000"/>
  <rect id="558a76e4047147d0a3c1e09b3e5fbe60-oa-4" height="58.62069" width="672.41379" y="208.13786" x="1501.93102" stroke="#2D2D2D" fill="#ff0000"/>
  <rect id="558a76e4047147d0a3c1e09b3e5fbe60-oa-5" height="75.86207" width="155.17241" y="318.48268" x="967.44826" stroke="#2D2D2D" fill="#0000ff"/>
  <rect id="558a76e4047147d0a3c1e09b3e5fbe60-oa-6" height="72.41379" width="148.27586" y="315.03441" x="1291.58619" stroke="#2D2D2D" fill="#0000ff"/>
  <rect id="558a76e4047147d0a3c1e09b3e5fbe60-oa-7" height="75.86207" width="162.06896" y="315.03441" x="1615.72412" stroke="#2D2D2D" fill="#0000ff"/>
  <rect id="558a76e4047147d0a3c1e09b3e5fbe60-oa-8" height="79.31034" width="168.96552" y="321.93096" x="1936.41378" stroke="#2D2D2D" fill="#0000ff"/>
  <rect id="558a76e4047147d0a3c1e09b3e5fbe60-oa-9" height="31.03448" width="193.10345" y="880.55165" x="939.86206" stroke="#2D2D2D" fill="#0000ff"/>
  <rect id="558a76e4047147d0a3c1e09b3e5fbe60-oa-10" height="44.82759" width="327.58621" y="1135.72406" x="374.34482" stroke="#2D2D2D" fill="#0000ff"/>
  <rect id="558a76e4047147d0a3c1e09b3e5fbe60-oa-11" height="44.82759" width="172.41379" y="1394.34475" x="1226.06895" stroke="#2D2D2D" fill="#0000ff"/>
  <rect id="558a76e4047147d0a3c1e09b3e5fbe60-oa-12" height="37.93103" width="203.44828" y="1456.41372" x="1432.9655" stroke="#2D2D2D" fill="#0000ff"/>
  <rect id="558a76e4047147d0a3c1e09b3e5fbe60-oa-13" height="37.93103" width="51.72414" y="1515.0344" x="905.3793" stroke="#2D2D2D" fill="#0000ff"/>
  <rect id="558a76e4047147d0a3c1e09b3e5fbe60-oa-14" height="34.48276" width="158.62069" y="1521.93096" x="1705.3793" stroke="#2D2D2D" fill="#0000ff"/>
  <rect id="558a76e4047147d0a3c1e09b3e5fbe60-oa-15" height="34.48276" width="48.27586" y="1580.55165" x="1008.82757" stroke="#2D2D2D" fill="#0000ff"/>
 </g>
</svg>