<svg xmlns="http://www.w3.org/2000/svg" width="2226" height="1214">
 <!-- Created with Image Occlusion Enhanced -->
 <g>
  <title>Labels</title>
 </g>
 <g>
  <title>Masks</title>
  <rect id="5a9cf04f14664b19a8e9afb3676f45e9-oa-1" height="41.46342" width="207.31708" y="93.31709" x="627.65862" stroke="#2D2D2D" fill="#0000ff"/>
  <rect id="5a9cf04f14664b19a8e9afb3676f45e9-oa-2" height="43.90244" width="112.19513" y="95.75612" x="1276.43913" stroke="#2D2D2D" fill="#0000ff"/>
  <rect id="5a9cf04f14664b19a8e9afb3676f45e9-oa-3" height="39.02439" width="126.82927" y="217.70734" x="1688.63426" stroke="#2D2D2D" fill="#0000ff"/>
  <rect id="5a9cf04f14664b19a8e9afb3676f45e9-oa-4" height="31.70732" width="139.02439" y="281.12198" x="1856.92695" stroke="#2D2D2D" fill="#0000ff"/>
  <rect id="5a9cf04f14664b19a8e9afb3676f45e9-oa-5" height="36.58537" width="143.90244" y="281.12198" x="1686.19524" stroke="#2D2D2D" fill="#0000ff"/>
  <rect id="5a9cf04f14664b19a8e9afb3676f45e9-oa-6" height="34.14634" width="260.97562" y="415.26832" x="476.4391" stroke="#2D2D2D" fill="#0000ff"/>
  <rect id="5a9cf04f14664b19a8e9afb3676f45e9-oa-7" height="41.46342" width="129.2683" y="412.8293" x="1469.12206" stroke="#2D2D2D" fill="#0000ff"/>
  <rect id="5a9cf04f14664b19a8e9afb3676f45e9-oa-8" height="36.58537" width="212.19513" y="490.87808" x="444.73179" stroke="#2D2D2D" fill="#0000ff"/>
  <rect id="5a9cf04f14664b19a8e9afb3676f45e9-oa-9" height="31.70732" width="265.85367" y="490.87808" x="1705.70743" stroke="#2D2D2D" fill="#0000ff"/>
  <rect id="5a9cf04f14664b19a8e9afb3676f45e9-oa-10" height="41.46342" width="200.00001" y="620.14638" x="500.82935" stroke="#2D2D2D" fill="#0000ff"/>
  <rect id="5a9cf04f14664b19a8e9afb3676f45e9-oa-11" height="39.02439" width="192.68293" y="683.56101" x="649.60984" stroke="#2D2D2D" fill="#0000ff"/>
  <rect id="5a9cf04f14664b19a8e9afb3676f45e9-oa-12" height="56.09756" width="209.7561" y="810.39029" x="447.17081" stroke="#2D2D2D" fill="#0000ff"/>
  <rect id="5a9cf04f14664b19a8e9afb3676f45e9-oa-13" height="39.02439" width="180.48781" y="817.70736" x="1752.0489" stroke="#2D2D2D" fill="#0000ff"/>
  <rect id="5a9cf04f14664b19a8e9afb3676f45e9-oa-14" height="39.02439" width="219.5122" y="888.43907" x="342.29276" stroke="#2D2D2D" fill="#0000ff"/>
  <rect id="5a9cf04f14664b19a8e9afb3676f45e9-oa-15" height="41.46342" width="117.07317" y="895.75614" x="1556.92694" stroke="#2D2D2D" fill="#0000ff"/>
  <rect id="5a9cf04f14664b19a8e9afb3676f45e9-oa-16" height="58.53659" width="241.46342" y="1020.14639" x="513.02447" stroke="#2D2D2D" fill="#0000ff"/>
  <rect id="5a9cf04f14664b19a8e9afb3676f45e9-oa-17" height="48.78049" width="82.92683" y="1146.97566" x="1005.70741" stroke="#2D2D2D" fill="#0000ff"/>
 </g>
</svg>