<svg xmlns="http://www.w3.org/2000/svg" width="2196" height="1418">
 <!-- Created with Image Occlusion Enhanced -->
 <g>
  <title>Labels</title>
 </g>
 <g>
  <title>Masks</title>
  <rect id="5c125d8d93e24240ac8135048c445c1c-oa-1" height="33.33333" width="84.61538" y="153.7948" x="839.89743" stroke="#2D2D2D" fill="#ff0000"/>
  <rect id="5c125d8d93e24240ac8135048c445c1c-oa-2" height="38.46154" width="71.79487" y="264.05121" x="1109.1282" stroke="#2D2D2D" fill="#ff0000"/>
  <rect id="5c125d8d93e24240ac8135048c445c1c-oa-3" height="28.20513" width="53.84615" y="392.25634" x="1883.48717" stroke="#2D2D2D" fill="#ff0000"/>
  <rect id="5c125d8d93e24240ac8135048c445c1c-oa-4" height="35.89744" width="141.02564" y="502.51275" x="1391.17948" stroke="#2D2D2D" fill="#ff0000"/>
  <rect id="5c125d8d93e24240ac8135048c445c1c-oa-5" height="46.15385" width="71.79487" y="681.99992" x="1662.97435" stroke="#2D2D2D" fill="#ff0000"/>
  <rect id="5c125d8d93e24240ac8135048c445c1c-oa-6" height="25.64103" width="100" y="835.84608" x="1314.2564" stroke="#2D2D2D" fill="#ff0000"/>
  <rect id="5c125d8d93e24240ac8135048c445c1c-oa-7" height="43.58974" width="66.66667" y="894.82044" x="586.05127" stroke="#2D2D2D" fill="#ff0000"/>
  <rect id="5c125d8d93e24240ac8135048c445c1c-oa-8" height="28.20513" width="148.71795" y="969.17941" x="665.53845" stroke="#2D2D2D" fill="#ff0000"/>
  <rect id="5c125d8d93e24240ac8135048c445c1c-oa-9" height="35.89744" width="43.58974" y="1033.28198" x="924.51281" stroke="#2D2D2D" fill="#ff0000"/>
  <rect id="5c125d8d93e24240ac8135048c445c1c-oa-10" height="20.51282" width="53.84615" y="1097.38454" x="1229.64102" stroke="#2D2D2D" fill="#ff0000"/>
  <rect id="5c125d8d93e24240ac8135048c445c1c-oa-11" height="23.07692" width="41.02564" y="1094.82044" x="1339.89743" stroke="#2D2D2D" fill="#ff0000"/>
  <rect id="5c125d8d93e24240ac8135048c445c1c-oa-12" height="25.64103" width="61.53846" y="1097.38454" x="1434.76922" stroke="#2D2D2D" fill="#ff0000"/>
  <rect id="5c125d8d93e24240ac8135048c445c1c-oa-13" height="28.20513" width="41.02564" y="1092.25633" x="1539.89743" stroke="#2D2D2D" fill="#ff0000"/>
  <rect id="5c125d8d93e24240ac8135048c445c1c-oa-14" height="30.76923" width="307.69231" y="1151.23069" x="1488.61537" stroke="#2D2D2D" fill="#ff0000"/>
  <rect id="5c125d8d93e24240ac8135048c445c1c-oa-15" height="38.46154" width="143.58974" y="1284.56403" x="619.38461" stroke="#2D2D2D" fill="#ff0000"/>
  <rect id="5c125d8d93e24240ac8135048c445c1c-oa-16" height="43.58974" width="97.4359" y="1351.23069" x="1419.38461" stroke="#2D2D2D" fill="#ff0000"/>
 </g>
</svg>