<svg xmlns="http://www.w3.org/2000/svg" width="2488" height="1508">
 <!-- Created with Image Occlusion Enhanced -->
 <g>
  <title>Labels</title>
 </g>
 <g>
  <title>Masks</title>
  <rect id="5d6e35f8009f44b3b25e277a76f20dca-oa-1" height="54.54546" width="681.8182" y="164.72719" x="1433.21223" stroke="#2D2D2D" fill="#0000ff"/>
  <rect id="5d6e35f8009f44b3b25e277a76f20dca-oa-2" height="39.39394" width="139.39394" y="231.39386" x="696.84857" stroke="#2D2D2D" fill="#0000ff"/>
  <rect id="5d6e35f8009f44b3b25e277a76f20dca-oa-3" height="39.39394" width="306.06061" y="237.45447" x="1566.54556" stroke="#2D2D2D" fill="#0000ff"/>
  <rect id="5d6e35f8009f44b3b25e277a76f20dca-oa-4" height="42.42424" width="224.24243" y="298.06053" x="1284.72737" stroke="#2D2D2D" fill="#0000ff"/>
  <rect id="5d6e35f8009f44b3b25e277a76f20dca-oa-5" height="48.48485" width="206.06061" y="298.06053" x="1954.42436" stroke="#2D2D2D" fill="#0000ff"/>
  <rect id="5d6e35f8009f44b3b25e277a76f20dca-oa-6" height="45.45455" width="281.81819" y="361.69689" x="405.93947" stroke="#2D2D2D" fill="#0000ff"/>
  <rect id="5d6e35f8009f44b3b25e277a76f20dca-oa-7" height="39.39394" width="187.87879" y="670.78781" x="1757.45466" stroke="#2D2D2D" fill="#0000ff"/>
  <rect id="5d6e35f8009f44b3b25e277a76f20dca-oa-8" height="48.48485" width="151.51516" y="658.6666" x="405.93947" stroke="#2D2D2D" fill="#0000ff"/>
  <rect id="5d6e35f8009f44b3b25e277a76f20dca-oa-9" height="57.57576" width="203.03031" y="946.54539" x="399.87887" stroke="#2D2D2D" fill="#0000ff"/>
  <rect id="5d6e35f8009f44b3b25e277a76f20dca-oa-10" height="36.36364" width="121.21212" y="1019.27267" x="724.1213" stroke="#2D2D2D" fill="#0000ff"/>
  <rect id="5d6e35f8009f44b3b25e277a76f20dca-oa-11" height="33.33333" width="245.45455" y="1019.27267" x="869.57585" stroke="#2D2D2D" fill="#0000ff"/>
  <rect id="5d6e35f8009f44b3b25e277a76f20dca-oa-12" height="39.39394" width="266.66667" y="1016.24236" x="1545.33344" stroke="#2D2D2D" fill="#0000ff"/>
  <rect id="5d6e35f8009f44b3b25e277a76f20dca-oa-13" height="48.48485" width="112.12122" y="1067.75752" x="1087.75767" stroke="#2D2D2D" fill="#0000ff"/>
  <rect id="5d6e35f8009f44b3b25e277a76f20dca-oa-14" height="39.39394" width="45.45455" y="1064.72721" x="1399.87889" stroke="#2D2D2D" fill="#0000ff"/>
  <rect id="5d6e35f8009f44b3b25e277a76f20dca-oa-15" height="48.48485" width="209.09091" y="1131.39388" x="405.93947" stroke="#2D2D2D" fill="#0000ff"/>
  <rect id="5d6e35f8009f44b3b25e277a76f20dca-oa-16" height="30.30303" width="121.21212" y="1195.03025" x="499.87887" stroke="#2D2D2D" fill="#0000ff"/>
  <rect id="5d6e35f8009f44b3b25e277a76f20dca-oa-17" height="39.39394" width="157.57576" y="1313.21207" x="405.93947" stroke="#2D2D2D" fill="#0000ff"/>
  <rect id="5d6e35f8009f44b3b25e277a76f20dca-oa-18" height="30.30303" width="172.72728" y="1325.33328" x="902.90918" stroke="#2D2D2D" fill="#0000ff"/>
  <rect id="5d6e35f8009f44b3b25e277a76f20dca-oa-19" height="36.36364" width="284.84849" y="1382.90904" x="402.90917" stroke="#2D2D2D" fill="#0000ff"/>
  <rect stroke="#2D2D2D" id="5d6e35f8009f44b3b25e277a76f20dca-oa-20" height="42.42424" width="75.75758" y="1382.90904" x="1896.8486" fill="#0000ff"/>
 </g>
</svg>