<svg xmlns="http://www.w3.org/2000/svg" width="1338" height="904">
 <!-- Created with Image Occlusion Enhanced -->
 <g>
  <title>Labels</title>
 </g>
 <g>
  <title>Masks</title>
  <rect id="71965f07c5a54d97bfb70ba829f62751-oa-1" height="32.72727" width="323.63636" y="17.81816" x="69.27268" stroke="#2D2D2D" fill="#ff0000"/>
  <rect id="71965f07c5a54d97bfb70ba829f62751-oa-2" height="25.45454" width="239.99999" y="99.63634" x="291.09085" stroke="#2D2D2D" fill="#ff0000"/>
  <rect id="71965f07c5a54d97bfb70ba829f62751-oa-3" height="30.90909" width="161.81818" y="150.54543" x="318.36358" stroke="#2D2D2D" fill="#ff0000"/>
  <rect id="71965f07c5a54d97bfb70ba829f62751-oa-4" height="25.45454" width="41.81818" y="283.2727" x="1056.54538" stroke="#2D2D2D" fill="#ff0000"/>
  <rect id="71965f07c5a54d97bfb70ba829f62751-oa-5" height="25.45454" width="83.63636" y="323.2727" x="1007.45447" stroke="#2D2D2D" fill="#ff0000"/>
  <rect id="71965f07c5a54d97bfb70ba829f62751-oa-6" height="18.18182" width="56.36363" y="501.45451" x="703.81811" stroke="#2D2D2D" fill="#ff0000"/>
  <rect id="71965f07c5a54d97bfb70ba829f62751-oa-7" height="20" width="76.36363" y="588.72724" x="101.99995" stroke="#2D2D2D" fill="#ff0000"/>
  <rect id="71965f07c5a54d97bfb70ba829f62751-oa-8" height="34.54545" width="40" y="579.63633" x="923.81811" stroke="#2D2D2D" fill="#ff0000"/>
  <rect id="71965f07c5a54d97bfb70ba829f62751-oa-9" height="23.63636" width="45.45454" y="670.54542" x="514.72721" stroke="#2D2D2D" fill="#ff0000"/>
  <rect id="71965f07c5a54d97bfb70ba829f62751-oa-10" height="23.63636" width="65.45454" y="670.54542" x="183.81813" stroke="#2D2D2D" fill="#ff0000"/>
  <rect id="71965f07c5a54d97bfb70ba829f62751-oa-11" height="18.18182" width="54.54545" y="717.81814" x="187.45449" stroke="#2D2D2D" fill="#ff0000"/>
  <rect id="71965f07c5a54d97bfb70ba829f62751-oa-12" height="29.09091" width="47.27273" y="708.72723" x="851.09084" stroke="#2D2D2D" fill="#ff0000"/>
  <rect id="71965f07c5a54d97bfb70ba829f62751-oa-13" height="25.45454" width="45.45454" y="714.18178" x="1114.7272" stroke="#2D2D2D" fill="#ff0000"/>
  <rect id="71965f07c5a54d97bfb70ba829f62751-oa-14" height="21.81818" width="72.72727" y="748.72723" x="1149.27265" stroke="#2D2D2D" fill="#ff0000"/>
  <rect id="71965f07c5a54d97bfb70ba829f62751-oa-15" height="27.27273" width="76.36363" y="828.72723" x="261.99994" stroke="#2D2D2D" fill="#ff0000"/>
 </g>
</svg>