<svg xmlns="http://www.w3.org/2000/svg" width="1372" height="1352">
 <!-- Created with Image Occlusion Enhanced -->
 <g>
  <title>Labels</title>
 </g>
 <g>
  <title>Masks</title>
  <rect id="75ad3f71473d4e6cb6e4a43049a09b79-oa-1" height="27.77778" width="69.44444" y="106.33333" x="300.22217" stroke="#2D2D2D" fill="#ff0000"/>
  <rect id="75ad3f71473d4e6cb6e4a43049a09b79-oa-2" height="27.77778" width="69.44444" y="109.11111" x="441.88883" stroke="#2D2D2D" fill="#ff0000"/>
  <rect id="75ad3f71473d4e6cb6e4a43049a09b79-oa-3" height="30.55556" width="75" y="148" x="341.88883" stroke="#2D2D2D" fill="#ff0000"/>
  <rect id="75ad3f71473d4e6cb6e4a43049a09b79-oa-4" height="33.33333" width="119.44444" y="145.22222" x="691.88883" stroke="#2D2D2D" fill="#ff0000"/>
  <rect id="75ad3f71473d4e6cb6e4a43049a09b79-oa-5" height="38.88889" width="75" y="278.55555" x="72.44439" stroke="#2D2D2D" fill="#ff0000"/>
  <rect id="75ad3f71473d4e6cb6e4a43049a09b79-oa-6" height="27.77778" width="208.33333" y="331.33333" x="69.66661" stroke="#2D2D2D" fill="#ff0000"/>
  <rect id="75ad3f71473d4e6cb6e4a43049a09b79-oa-7" height="36.11111" width="61.11111" y="367.44444" x="452.99994" stroke="#2D2D2D" fill="#ff0000"/>
  <rect id="75ad3f71473d4e6cb6e4a43049a09b79-oa-8" height="27.77778" width="47.22222" y="367.44444" x="755.77772" stroke="#2D2D2D" fill="#ff0000"/>
  <rect id="75ad3f71473d4e6cb6e4a43049a09b79-oa-9" height="27.77778" width="105.55556" y="370.22222" x="1022.44439" stroke="#2D2D2D" fill="#ff0000"/>
  <rect id="75ad3f71473d4e6cb6e4a43049a09b79-oa-10" height="25" width="63.88889" y="459.11111" x="969.66661" stroke="#2D2D2D" fill="#ff0000"/>
  <rect id="75ad3f71473d4e6cb6e4a43049a09b79-oa-11" height="25" width="108.33333" y="514.66666" x="297.44439" stroke="#2D2D2D" fill="#ff0000"/>
  <rect id="75ad3f71473d4e6cb6e4a43049a09b79-oa-12" height="27.77778" width="133.33333" y="598" x="300.22217" stroke="#2D2D2D" fill="#ff0000"/>
  <rect id="75ad3f71473d4e6cb6e4a43049a09b79-oa-13" height="33.33333" width="105.55556" y="600.77777" x="569.66661" stroke="#2D2D2D" fill="#ff0000"/>
  <rect id="75ad3f71473d4e6cb6e4a43049a09b79-oa-14" height="27.77778" width="116.66667" y="598" x="872.44439" stroke="#2D2D2D" fill="#ff0000"/>
  <rect id="75ad3f71473d4e6cb6e4a43049a09b79-oa-15" height="25" width="194.44444" y="653.55555" x="1014.11105" stroke="#2D2D2D" fill="#ff0000"/>
  <rect id="75ad3f71473d4e6cb6e4a43049a09b79-oa-16" height="25" width="100" y="692.44444" x="927.99994" stroke="#2D2D2D" fill="#ff0000"/>
  <rect id="75ad3f71473d4e6cb6e4a43049a09b79-oa-17" height="27.77778" width="22.22222" y="736.88888" x="252.99995" stroke="#2D2D2D" fill="#ff0000"/>
  <rect id="75ad3f71473d4e6cb6e4a43049a09b79-oa-18" height="27.77778" width="138.88889" y="831.33333" x="639.11106" stroke="#2D2D2D" fill="#ff0000"/>
  <rect id="75ad3f71473d4e6cb6e4a43049a09b79-oa-19" height="22.22222" width="158.33333" y="1011.88888" x="469.66661" stroke="#2D2D2D" fill="#ff0000"/>
  <rect id="75ad3f71473d4e6cb6e4a43049a09b79-oa-20" height="33.33333" width="33.33333" y="1047.99999" x="516.88883" stroke="#2D2D2D" fill="#ff0000"/>
  <rect id="75ad3f71473d4e6cb6e4a43049a09b79-oa-21" height="36.11111" width="116.66667" y="1045.22222" x="964.11105" stroke="#2D2D2D" fill="#ff0000"/>
  <rect id="75ad3f71473d4e6cb6e4a43049a09b79-oa-22" height="38.88889" width="180.55556" y="1086.88888" x="658.5555" stroke="#2D2D2D" fill="#ff0000"/>
  <rect id="75ad3f71473d4e6cb6e4a43049a09b79-oa-23" height="41.66667" width="125" y="1086.88888" x="858.5555" stroke="#2D2D2D" fill="#ff0000"/>
  <rect id="75ad3f71473d4e6cb6e4a43049a09b79-oa-24" height="38.88889" width="161.11111" y="1089.66666" x="1069.66661" stroke="#2D2D2D" fill="#ff0000"/>
  <rect id="75ad3f71473d4e6cb6e4a43049a09b79-oa-25" height="30.55556" width="161.11111" y="1145.22222" x="477.99994" stroke="#2D2D2D" fill="#ff0000"/>
  <rect id="75ad3f71473d4e6cb6e4a43049a09b79-oa-26" height="16.66667" width="138.88889" y="1192.44444" x="880.77772" stroke="#2D2D2D" fill="#ff0000"/>
  <rect id="75ad3f71473d4e6cb6e4a43049a09b79-oa-27" height="25" width="55.55556" y="1186.88888" x="1180.77772" stroke="#2D2D2D" fill="#ff0000"/>
 </g>
</svg>