<svg xmlns="http://www.w3.org/2000/svg" width="2092" height="1794">
 <!-- Created with Image Occlusion Enhanced -->
 <g>
  <title>Labels</title>
 </g>
 <g>
  <title>Masks</title>
  <rect id="79e9e96715c44ac5a03d7483047f130b-oa-1" height="92.59259" width="170.37037" y="68.96294" x="104.29616" stroke="#2D2D2D" fill="#ff7f00"/>
  <rect id="79e9e96715c44ac5a03d7483047f130b-oa-2" height="92.59259" width="277.77777" y="5.99998" x="500.59245" stroke="#2D2D2D" fill="#ff7f00"/>
  <rect id="79e9e96715c44ac5a03d7483047f130b-oa-3" height="51.85185" width="140.74074" y="72.66665" x="922.81467" stroke="#2D2D2D" fill="#ff7f00"/>
  <rect id="79e9e96715c44ac5a03d7483047f130b-oa-4" height="92.59259" width="281.48148" y="191.18517" x="1270.96281" stroke="#2D2D2D" fill="#ff7f00"/>
  <rect id="79e9e96715c44ac5a03d7483047f130b-oa-5" height="77.77778" width="203.7037" y="335.62961" x="1385.77763" stroke="#2D2D2D" fill="#ff7f00"/>
  <rect id="79e9e96715c44ac5a03d7483047f130b-oa-6" height="29.62963" width="225.92592" y="457.85183" x="1363.5554" stroke="#2D2D2D" fill="#ff7f00"/>
  <rect id="79e9e96715c44ac5a03d7483047f130b-oa-7" height="74.07407" width="151.85185" y="483.77775" x="1600.59244" stroke="#2D2D2D" fill="#ff7f00"/>
  <rect id="79e9e96715c44ac5a03d7483047f130b-oa-8" height="33.33333" width="133.33333" y="554.14812" x="1374.66651" stroke="#2D2D2D" fill="#ff7f00"/>
  <rect id="79e9e96715c44ac5a03d7483047f130b-oa-9" height="62.96296" width="111.11111" y="702.29627" x="1593.18503" stroke="#2D2D2D" fill="#ff7f00"/>
  <rect id="79e9e96715c44ac5a03d7483047f130b-oa-10" height="100" width="148.14815" y="902.29627" x="1552.44429" stroke="#2D2D2D" fill="#ff7f00"/>
  <rect id="79e9e96715c44ac5a03d7483047f130b-oa-11" height="37.03704" width="92.59259" y="1205.99997" x="1411.70355" stroke="#2D2D2D" fill="#ff7f00"/>
  <rect id="79e9e96715c44ac5a03d7483047f130b-oa-12" height="51.85185" width="188.88889" y="1520.81478" x="1393.18503" stroke="#2D2D2D" fill="#ff7f00"/>
  <rect id="79e9e96715c44ac5a03d7483047f130b-oa-13" height="48.14815" width="151.85185" y="1528.22219" x="622.81467" stroke="#2D2D2D" fill="#ff7f00"/>
  <rect id="79e9e96715c44ac5a03d7483047f130b-oa-14" height="37.03704" width="96.2963" y="1180.07404" x="537.62949" stroke="#2D2D2D" fill="#ff7f00"/>
  <rect id="79e9e96715c44ac5a03d7483047f130b-oa-15" height="88.88889" width="188.88889" y="1024.51849" x="426.51838" stroke="#2D2D2D" fill="#ff7f00"/>
  <rect id="79e9e96715c44ac5a03d7483047f130b-oa-16" height="96.2963" width="140.74074" y="765.25923" x="207.99986" stroke="#2D2D2D" fill="#ff7f00"/>
  <rect id="79e9e96715c44ac5a03d7483047f130b-oa-17" height="70.37037" width="233.33333" y="646.74072" x="156.14801" stroke="#2D2D2D" fill="#ff7f00"/>
  <rect id="79e9e96715c44ac5a03d7483047f130b-oa-18" height="37.03704" width="196.29629" y="576.37035" x="104.29616" stroke="#2D2D2D" fill="#ff7f00"/>
  <rect id="79e9e96715c44ac5a03d7483047f130b-oa-19" height="40.74074" width="229.62963" y="476.37035" x="185.77764" stroke="#2D2D2D" fill="#ff7f00"/>
  <rect id="79e9e96715c44ac5a03d7483047f130b-oa-20" height="137.03704" width="192.59259" y="294.88887" x="93.18505" stroke="#2D2D2D" fill="#ff7f00"/>
 </g>
</svg>