<svg xmlns="http://www.w3.org/2000/svg" width="2242" height="1584">
 <!-- Created with Image Occlusion Enhanced -->
 <g>
  <title>Labels</title>
 </g>
 <g>
  <title>Masks</title>
  <rect id="8c0bc1f7d5bf4b9fac23d6e3e1cec1da-oa-1" height="32.25806" width="209.67742" y="1145.03221" x="1193.48378" stroke="#2D2D2D" fill="#ff0000"/>
  <rect id="8c0bc1f7d5bf4b9fac23d6e3e1cec1da-oa-2" height="32.25806" width="151.6129" y="1141.8064" x="1432.19345" stroke="#2D2D2D" fill="#ff0000"/>
  <rect id="8c0bc1f7d5bf4b9fac23d6e3e1cec1da-oa-3" height="32.25806" width="122.58064" y="1212.77414" x="1912.8386" stroke="#2D2D2D" fill="#ff0000"/>
  <rect id="8c0bc1f7d5bf4b9fac23d6e3e1cec1da-oa-4" height="58.06452" width="261.29032" y="1257.93543" x="538.64508" stroke="#2D2D2D" fill="#ff0000"/>
  <rect id="8c0bc1f7d5bf4b9fac23d6e3e1cec1da-oa-5" height="48.3871" width="303.2258" y="1257.93543" x="1735.41925" stroke="#2D2D2D" fill="#ff0000"/>
  <rect id="8c0bc1f7d5bf4b9fac23d6e3e1cec1da-oa-6" height="41.93548" width="106.45161" y="1328.90318" x="790.25798" stroke="#2D2D2D" fill="#ff0000"/>
  <rect id="8c0bc1f7d5bf4b9fac23d6e3e1cec1da-oa-7" height="41.93548" width="219.35483" y="1332.12898" x="1164.45152" stroke="#2D2D2D" fill="#ff0000"/>
  <rect id="8c0bc1f7d5bf4b9fac23d6e3e1cec1da-oa-8" height="51.6129" width="129.03226" y="1399.87092" x="1941.87086" stroke="#2D2D2D" fill="#ff0000"/>
  <rect id="8c0bc1f7d5bf4b9fac23d6e3e1cec1da-oa-9" height="38.70968" width="293.54838" y="1464.38704" x="428.96766" stroke="#2D2D2D" fill="#ff0000"/>
  <rect id="8c0bc1f7d5bf4b9fac23d6e3e1cec1da-oa-10" height="32.25806" width="161.29032" y="1467.61285" x="764.45152" stroke="#2D2D2D" fill="#ff0000"/>
  <rect id="8c0bc1f7d5bf4b9fac23d6e3e1cec1da-oa-11" height="32.25806" width="345.16128" y="1464.38704" x="961.22571" stroke="#2D2D2D" fill="#ff0000"/>
  <rect id="8c0bc1f7d5bf4b9fac23d6e3e1cec1da-oa-12" height="38.70968" width="312.90322" y="1464.38704" x="1357.9999" stroke="#2D2D2D" fill="#ff0000"/>
  <rect id="8c0bc1f7d5bf4b9fac23d6e3e1cec1da-oa-13" height="41.93548" width="164.51613" y="1464.38704" x="1799.93538" stroke="#2D2D2D" fill="#ff0000"/>
  <rect id="8c0bc1f7d5bf4b9fac23d6e3e1cec1da-oa-14" height="32.25806" width="145.16129" y="1532.12898" x="887.03217" stroke="#2D2D2D" fill="#ff0000"/>
  <rect id="8c0bc1f7d5bf4b9fac23d6e3e1cec1da-oa-15" height="38.70968" width="167.74193" y="693.41932" x="1603.16119" stroke="#2D2D2D" fill="#ff0000"/>
 </g>
</svg>