<svg xmlns="http://www.w3.org/2000/svg" width="2690" height="1582">
 <!-- Created with Image Occlusion Enhanced -->
 <g>
  <title>Labels</title>
 </g>
 <g>
  <title>Masks</title>
  <rect id="8d34a057801e43bbbcf8dd4c76c8ec07-oa-1" height="41.93548" width="287.09677" y="253.48382" x="184.19346" stroke="#2D2D2D" fill="#ff7f00"/>
  <rect id="8d34a057801e43bbbcf8dd4c76c8ec07-oa-2" height="45.16129" width="329.03225" y="347.03221" x="148.70959" stroke="#2D2D2D" fill="#ff7f00"/>
  <rect id="8d34a057801e43bbbcf8dd4c76c8ec07-oa-3" height="54.83871" width="364.51612" y="450.25801" x="126.12895" stroke="#2D2D2D" fill="#ff7f00"/>
  <rect id="8d34a057801e43bbbcf8dd4c76c8ec07-oa-4" height="45.16129" width="338.70967" y="543.80639" x="116.45153" stroke="#2D2D2D" fill="#ff7f00"/>
  <rect id="8d34a057801e43bbbcf8dd4c76c8ec07-oa-5" height="48.3871" width="406.4516" y="595.4193" x="197.09669" stroke="#2D2D2D" fill="#ff7f00"/>
  <rect id="8d34a057801e43bbbcf8dd4c76c8ec07-oa-6" height="51.6129" width="322.58064" y="798.6451" x="300.32249" stroke="#2D2D2D" fill="#ff7f00"/>
  <rect id="8d34a057801e43bbbcf8dd4c76c8ec07-oa-7" height="61.29032" width="458.0645" y="859.93542" x="158.38701" stroke="#2D2D2D" fill="#ff7f00"/>
  <rect id="8d34a057801e43bbbcf8dd4c76c8ec07-oa-8" height="58.06451" width="419.35483" y="959.93541" x="55.16121" stroke="#2D2D2D" fill="#ff7f00"/>
  <rect id="8d34a057801e43bbbcf8dd4c76c8ec07-oa-9" height="48.3871" width="312.90322" y="1098.64509" x="148.70959" stroke="#2D2D2D" fill="#ff7f00"/>
  <rect id="8d34a057801e43bbbcf8dd4c76c8ec07-oa-10" height="61.29032" width="312.90322" y="1285.74186" x="184.19346" stroke="#2D2D2D" fill="#ff7f00"/>
  <rect id="8d34a057801e43bbbcf8dd4c76c8ec07-oa-11" height="64.51613" width="312.90322" y="1372.83863" x="2055.16115" stroke="#2D2D2D" fill="#ff7f00"/>
  <rect id="8d34a057801e43bbbcf8dd4c76c8ec07-oa-12" height="61.29032" width="303.2258" y="1169.61283" x="2068.06438" stroke="#2D2D2D" fill="#ff7f00"/>
  <rect id="8d34a057801e43bbbcf8dd4c76c8ec07-oa-13" height="51.6129" width="319.35483" y="998.64509" x="2055.16115" stroke="#2D2D2D" fill="#ff7f00"/>
  <rect id="8d34a057801e43bbbcf8dd4c76c8ec07-oa-14" height="32.25806" width="335.48386" y="1066.38702" x="2035.80631" stroke="#2D2D2D" fill="#ff7f00"/>
  <rect id="8d34a057801e43bbbcf8dd4c76c8ec07-oa-15" height="54.83871" width="141.93548" y="843.80639" x="2048.70954" stroke="#2D2D2D" fill="#ff7f00"/>
 </g>
</svg>