<svg xmlns="http://www.w3.org/2000/svg" width="1973.9999999999998" height="1714">
 <!-- Created with Image Occlusion Enhanced -->
 <g>
  <title>Labels</title>
 </g>
 <g>
  <title>Masks</title>
  <rect id="9544c7a0e3bb483fb95902221dabf3d4-oa-1" height="75.86207" width="527.58621" y="141.17242" x="684.62057" stroke="#2D2D2D" fill="#ff7f00"/>
  <rect id="9544c7a0e3bb483fb95902221dabf3d4-oa-2" height="58.62069" width="234.48276" y="237.72415" x="477.72402" stroke="#2D2D2D" fill="#ff7f00"/>
  <rect id="9544c7a0e3bb483fb95902221dabf3d4-oa-3" height="72.41379" width="296.55173" y="472.20691" x="422.55161" stroke="#2D2D2D" fill="#ff7f00"/>
  <rect id="9544c7a0e3bb483fb95902221dabf3d4-oa-4" height="48.27586" width="237.93104" y="254.96553" x="1108.75851" stroke="#2D2D2D" fill="#ff7f00"/>
  <rect id="9544c7a0e3bb483fb95902221dabf3d4-oa-5" height="93.10345" width="296.55173" y="458.4138" x="1188.06885" stroke="#2D2D2D" fill="#ff7f00"/>
  <rect id="9544c7a0e3bb483fb95902221dabf3d4-oa-6" height="44.82759" width="189.65517" y="299.79311" x="501.86195" stroke="#2D2D2D" fill="#ff7f00"/>
  <rect id="9544c7a0e3bb483fb95902221dabf3d4-oa-7" height="44.82759" width="241.37931" y="310.13794" x="1108.75851" stroke="#2D2D2D" fill="#ff7f00"/>
  <rect id="9544c7a0e3bb483fb95902221dabf3d4-oa-8" height="58.62069" width="365.51724" y="351.51725" x="419.10333" stroke="#2D2D2D" fill="#ff7f00"/>
  <rect id="9544c7a0e3bb483fb95902221dabf3d4-oa-9" height="31.03448" width="155.17241" y="361.86208" x="1150.13782" stroke="#2D2D2D" fill="#ff7f00"/>
  <rect id="9544c7a0e3bb483fb95902221dabf3d4-oa-10" height="62.06897" width="186.2069" y="654.96553" x="281.1723" stroke="#2D2D2D" fill="#ff7f00"/>
  <rect id="9544c7a0e3bb483fb95902221dabf3d4-oa-11" height="68.96552" width="182.75862" y="837.72415" x="281.1723" stroke="#2D2D2D" fill="#ff7f00"/>
  <rect id="9544c7a0e3bb483fb95902221dabf3d4-oa-12" height="65.51724" width="186.2069" y="661.86208" x="712.20678" stroke="#2D2D2D" fill="#ff7f00"/>
  <rect id="9544c7a0e3bb483fb95902221dabf3d4-oa-13" height="48.27586" width="189.65517" y="1048.06898" x="225.99988" stroke="#2D2D2D" fill="#ff7f00"/>
  <rect id="9544c7a0e3bb483fb95902221dabf3d4-oa-14" height="106.89655" width="255.17242" y="1310.13795" x="239.79299" stroke="#2D2D2D" fill="#ff7f00"/>
  <rect id="9544c7a0e3bb483fb95902221dabf3d4-oa-15" height="58.62069" width="134.48276" y="1034.27588" x="988.06885" stroke="#2D2D2D" fill="#ff7f00"/>
  <rect id="9544c7a0e3bb483fb95902221dabf3d4-oa-16" height="120.68966" width="441.37931" y="1303.24139" x="715.65506" stroke="#2D2D2D" fill="#ff7f00"/>
  <rect id="9544c7a0e3bb483fb95902221dabf3d4-oa-17" height="120.68966" width="282.75862" y="710.13794" x="1063.93092" stroke="#2D2D2D" fill="#ff7f00"/>
  <rect id="9544c7a0e3bb483fb95902221dabf3d4-oa-18" height="124.13793" width="317.24138" y="889.44829" x="1401.86196" stroke="#2D2D2D" fill="#ff7f00"/>
  <rect id="9544c7a0e3bb483fb95902221dabf3d4-oa-19" height="58.62069" width="182.75862" y="1220.48277" x="1463.93092" stroke="#2D2D2D" fill="#ff7f00"/>
  <rect id="9544c7a0e3bb483fb95902221dabf3d4-oa-20" height="41.37931" width="141.37931" y="1282.55174" x="1381.1723" stroke="#2D2D2D" fill="#ff7f00"/>
  <rect id="9544c7a0e3bb483fb95902221dabf3d4-oa-21" height="34.48276" width="231.03448" y="1334.27588" x="1429.44816" stroke="#2D2D2D" fill="#ff7f00"/>
  <rect id="9544c7a0e3bb483fb95902221dabf3d4-oa-22" height="37.93103" width="227.58621" y="1386.00002" x="1446.68954" stroke="#2D2D2D" fill="#ff7f00"/>
 </g>
</svg>