<svg xmlns="http://www.w3.org/2000/svg" width="2658" height="1678">
 <!-- Created with Image Occlusion Enhanced -->
 <g>
  <title>Labels</title>
 </g>
 <g>
  <title>Masks</title>
  <rect id="98f223b63fa345f2bbb82819f0afd9b1-oa-1" height="58.62069" width="182.75862" y="639.2414" x="41.99995" stroke="#2D2D2D" fill="#ff0000"/>
  <rect id="98f223b63fa345f2bbb82819f0afd9b1-oa-2" height="65.51724" width="696.55173" y="311.65519" x="441.99995" stroke="#2D2D2D" fill="#ff0000"/>
  <rect id="98f223b63fa345f2bbb82819f0afd9b1-oa-3" height="51.72414" width="327.58621" y="104.75864" x="1376.48272" stroke="#2D2D2D" fill="#ff0000"/>
  <rect id="98f223b63fa345f2bbb82819f0afd9b1-oa-4" height="62.06897" width="248.27586" y="315.10347" x="1562.68962" stroke="#2D2D2D" fill="#ff0000"/>
  <rect id="98f223b63fa345f2bbb82819f0afd9b1-oa-5" height="93.10345" width="427.58621" y="315.10347" x="2021.31031" stroke="#2D2D2D" fill="#ff0000"/>
  <rect id="98f223b63fa345f2bbb82819f0afd9b1-oa-6" height="58.62069" width="400" y="584.06899" x="1359.24134" stroke="#2D2D2D" fill="#ff0000"/>
  <rect id="98f223b63fa345f2bbb82819f0afd9b1-oa-7" height="86.2069" width="389.65518" y="801.31037" x="1752.34479" stroke="#2D2D2D" fill="#ff0000"/>
  <rect id="98f223b63fa345f2bbb82819f0afd9b1-oa-8" height="55.17241" width="110.34483" y="928.89658" x="1741.99997" stroke="#2D2D2D" fill="#ff0000"/>
  <rect id="98f223b63fa345f2bbb82819f0afd9b1-oa-9" height="51.72414" width="693.10346" y="1049.58623" x="452.34478" stroke="#2D2D2D" fill="#ff0000"/>
  <rect id="98f223b63fa345f2bbb82819f0afd9b1-oa-10" height="65.51724" width="131.03448" y="1246.13796" x="645.44823" stroke="#2D2D2D" fill="#ff0000"/>
  <rect id="98f223b63fa345f2bbb82819f0afd9b1-oa-11" height="48.27586" width="179.31035" y="1284.069" x="1004.06892" stroke="#2D2D2D" fill="#ff0000"/>
  <rect id="98f223b63fa345f2bbb82819f0afd9b1-oa-12" height="51.72414" width="210.34483" y="1297.8621" x="1373.03445" stroke="#2D2D2D" fill="#ff0000"/>
  <rect id="98f223b63fa345f2bbb82819f0afd9b1-oa-13" height="58.62069" width="100" y="1435.79313" x="1324.75858" stroke="#2D2D2D" fill="#ff0000"/>
  <rect id="98f223b63fa345f2bbb82819f0afd9b1-oa-14" height="58.62069" width="131.03448" y="1263.37934" x="1810.96548" stroke="#2D2D2D" fill="#ff0000"/>
  <rect id="98f223b63fa345f2bbb82819f0afd9b1-oa-15" height="37.93103" width="186.2069" y="1322.00003" x="2148.89652" stroke="#2D2D2D" fill="#ff0000"/>
 </g>
</svg>