<svg xmlns="http://www.w3.org/2000/svg" width="2008" height="1702">
 <!-- Created with Image Occlusion Enhanced -->
 <g>
  <title>Labels</title>
 </g>
 <g>
  <title>Masks</title>
  <rect id="9f24a234dc4349aeadd9818fd0b187ce-oa-1" height="41.37931" width="355.17242" y="80.75867" x="909.24134" stroke="#2D2D2D" fill="#0000ff"/>
  <rect id="9f24a234dc4349aeadd9818fd0b187ce-oa-2" height="37.93104" width="120.68966" y="301.44833" x="1347.17239" stroke="#2D2D2D" fill="#0000ff"/>
  <rect id="9f24a234dc4349aeadd9818fd0b187ce-oa-3" height="34.48276" width="72.4138" y="342.82764" x="1550.62067" stroke="#2D2D2D" fill="#0000ff"/>
  <rect id="9f24a234dc4349aeadd9818fd0b187ce-oa-4" height="31.03448" width="113.79311" y="346.27592" x="1736.82757" stroke="#2D2D2D" fill="#0000ff"/>
  <rect id="9f24a234dc4349aeadd9818fd0b187ce-oa-5" height="24.13793" width="110.34483" y="394.55178" x="523.03443" stroke="#2D2D2D" fill="#0000ff"/>
  <rect id="9f24a234dc4349aeadd9818fd0b187ce-oa-6" height="37.93104" width="117.24138" y="442.82764" x="388.55167" stroke="#2D2D2D" fill="#0000ff"/>
  <rect id="9f24a234dc4349aeadd9818fd0b187ce-oa-7" height="37.93104" width="34.48276" y="439.37937" x="1064.41376" stroke="#2D2D2D" fill="#0000ff"/>
  <rect id="9f24a234dc4349aeadd9818fd0b187ce-oa-8" height="31.03448" width="175.86207" y="549.7242" x="1509.24136" stroke="#2D2D2D" fill="#0000ff"/>
  <rect id="9f24a234dc4349aeadd9818fd0b187ce-oa-9" height="41.37931" width="137.93104" y="701.44834" x="991.99996" stroke="#2D2D2D" fill="#0000ff"/>
  <rect id="9f24a234dc4349aeadd9818fd0b187ce-oa-10" height="34.48276" width="193.10345" y="763.51731" x="1616.13791" stroke="#2D2D2D" fill="#0000ff"/>
  <rect id="9f24a234dc4349aeadd9818fd0b187ce-oa-11" height="31.03448" width="137.93104" y="808.3449" x="1309.24135" stroke="#2D2D2D" fill="#0000ff"/>
  <rect id="9f24a234dc4349aeadd9818fd0b187ce-oa-12" height="48.27586" width="189.65518" y="863.51731" x="1678.20688" stroke="#2D2D2D" fill="#0000ff"/>
  <rect id="9f24a234dc4349aeadd9818fd0b187ce-oa-13" height="31.03448" width="110.34483" y="973.86214" x="419.58615" stroke="#2D2D2D" fill="#0000ff"/>
  <rect id="9f24a234dc4349aeadd9818fd0b187ce-oa-14" height="44.82759" width="148.27587" y="1132.48284" x="950.62065" stroke="#2D2D2D" fill="#0000ff"/>
  <rect id="9f24a234dc4349aeadd9818fd0b187ce-oa-15" height="48.27586" width="189.65518" y="1180.7587" x="467.86202" stroke="#2D2D2D" fill="#0000ff"/>
  <rect id="9f24a234dc4349aeadd9818fd0b187ce-oa-16" height="41.37931" width="158.62069" y="1311.79319" x="1254.06893" stroke="#2D2D2D" fill="#0000ff"/>
  <rect id="9f24a234dc4349aeadd9818fd0b187ce-oa-17" height="48.27586" width="75.86207" y="1301.44836" x="836.82754" stroke="#2D2D2D" fill="#0000ff"/>
  <rect id="9f24a234dc4349aeadd9818fd0b187ce-oa-18" height="24.13793" width="106.89655" y="1370.41388" x="602.34478" stroke="#2D2D2D" fill="#0000ff"/>
  <rect id="9f24a234dc4349aeadd9818fd0b187ce-oa-19" height="34.48276" width="117.24138" y="1466.9656" x="543.72409" stroke="#2D2D2D" fill="#0000ff"/>
  <rect id="9f24a234dc4349aeadd9818fd0b187ce-oa-20" height="24.13793" width="193.10345" y="1560.06905" x="547.17236" stroke="#2D2D2D" fill="#0000ff"/>
  <rect id="9f24a234dc4349aeadd9818fd0b187ce-oa-21" height="27.58621" width="134.48276" y="1601.44837" x="391.99995" stroke="#2D2D2D" fill="#0000ff"/>
 </g>
</svg>