<svg xmlns="http://www.w3.org/2000/svg" width="1586" height="1720">
 <!-- Created with Image Occlusion Enhanced -->
 <g>
  <title>Labels</title>
 </g>
 <g>
  <title>Masks</title>
  <rect id="a27847ca268c4877a373af129c03c979-oa-1" height="44.82759" width="89.65517" y="866.20696" x="500.20688" stroke="#2D2D2D" fill="#ff0000"/>
  <rect id="a27847ca268c4877a373af129c03c979-oa-2" height="31.03448" width="58.62069" y="731.7242" x="507.10343" stroke="#2D2D2D" fill="#ff0000"/>
  <rect id="a27847ca268c4877a373af129c03c979-oa-3" height="31.03448" width="203.44828" y="693.79316" x="410.5517" stroke="#2D2D2D" fill="#ff0000"/>
  <rect id="a27847ca268c4877a373af129c03c979-oa-4" height="34.48276" width="227.58621" y="652.41385" x="445.03446" stroke="#2D2D2D" fill="#ff0000"/>
  <rect id="a27847ca268c4877a373af129c03c979-oa-5" height="17.24138" width="134.48276" y="1438.62077" x="296.7586" stroke="#2D2D2D" fill="#7fff00"/>
  <rect id="a27847ca268c4877a373af129c03c979-oa-6" height="13.7931" width="120.68966" y="1473.10353" x="293.31032" stroke="#2D2D2D" fill="#7fff00"/>
  <rect id="a27847ca268c4877a373af129c03c979-oa-7" height="17.24138" width="186.2069" y="1500.68973" x="300.20687" stroke="#2D2D2D" fill="#7fff00"/>
  <rect id="a27847ca268c4877a373af129c03c979-oa-8" height="20.68966" width="141.37931" y="1531.72422" x="296.7586" stroke="#2D2D2D" fill="#7fff00"/>
  <rect id="a27847ca268c4877a373af129c03c979-oa-9" height="20.68966" width="134.48276" y="1438.62077" x="765.72412" stroke="#2D2D2D" fill="#7fff00"/>
  <rect id="a27847ca268c4877a373af129c03c979-oa-10" height="17.24138" width="127.58621" y="1473.10353" x="769.1724" stroke="#2D2D2D" fill="#7fff00"/>
  <rect id="a27847ca268c4877a373af129c03c979-oa-11" height="17.24138" width="110.34483" y="1504.13801" x="776.06895" stroke="#2D2D2D" fill="#7fff00"/>
  <rect id="a27847ca268c4877a373af129c03c979-oa-12" height="17.24138" width="106.89655" y="1597.24146" x="769.1724" stroke="#2D2D2D" fill="#7fff00"/>
  <rect id="a27847ca268c4877a373af129c03c979-oa-13" height="13.7931" width="120.68966" y="1631.72422" x="769.1724" stroke="#2D2D2D" fill="#7fff00"/>
  <rect id="a27847ca268c4877a373af129c03c979-oa-14" height="13.7931" width="120.68966" y="1442.06904" x="1234.68965" stroke="#2D2D2D" fill="#7fff00"/>
  <rect id="a27847ca268c4877a373af129c03c979-oa-15" height="17.24138" width="86.2069" y="1473.10353" x="1334.68966" stroke="#2D2D2D" fill="#7fff00"/>
  <rect id="a27847ca268c4877a373af129c03c979-oa-16" height="10.34483" width="86.2069" y="1507.58629" x="1338.13793" stroke="#2D2D2D" fill="#7fff00"/>
  <rect id="a27847ca268c4877a373af129c03c979-oa-17" height="24.13793" width="106.89655" y="1562.7587" x="1320.89655" stroke="#2D2D2D" fill="#7fff00"/>
 </g>
</svg>