<svg xmlns="http://www.w3.org/2000/svg" width="2224" height="960">
 <!-- Created with Image Occlusion Enhanced -->
 <g>
  <title>Labels</title>
 </g>
 <g>
  <title>Masks</title>
  <rect id="a3e3cff7d3a149df9e0116502129ba3e-oa-1" height="31.91489" width="299.99999" y="252.76592" x="199.40419" stroke="#2D2D2D" fill="#ff7f00"/>
  <rect id="a3e3cff7d3a149df9e0116502129ba3e-oa-2" height="42.55319" width="125.53191" y="350.63826" x="367.48929" stroke="#2D2D2D" fill="#ff7f00"/>
  <rect id="a3e3cff7d3a149df9e0116502129ba3e-oa-3" height="29.78723" width="151.06383" y="465.53188" x="305.78716" stroke="#2D2D2D" fill="#ff7f00"/>
  <rect id="a3e3cff7d3a149df9e0116502129ba3e-oa-4" height="59.57447" width="102.12766" y="576.17017" x="295.14886" stroke="#2D2D2D" fill="#ff7f00"/>
  <rect id="a3e3cff7d3a149df9e0116502129ba3e-oa-5" height="46.80851" width="293.61701" y="646.38294" x="97.27653" stroke="#2D2D2D" fill="#ff7f00"/>
  <rect id="a3e3cff7d3a149df9e0116502129ba3e-oa-6" height="48.93617" width="125.53191" y="212.34039" x="1103.65948" stroke="#2D2D2D" fill="#ff7f00"/>
  <rect id="a3e3cff7d3a149df9e0116502129ba3e-oa-7" height="44.68085" width="140.42553" y="486.80847" x="1112.17012" stroke="#2D2D2D" fill="#ff7f00"/>
  <rect id="a3e3cff7d3a149df9e0116502129ba3e-oa-8" height="44.68085" width="248.93616" y="852.76591" x="607.91481" stroke="#2D2D2D" fill="#ff7f00"/>
  <rect id="a3e3cff7d3a149df9e0116502129ba3e-oa-9" height="42.55319" width="144.68085" y="539.99996" x="1554.7233" stroke="#2D2D2D" fill="#ff7f00"/>
  <rect id="a3e3cff7d3a149df9e0116502129ba3e-oa-10" height="27.65957" width="119.14893" y="320.85103" x="1799.40414" stroke="#2D2D2D" fill="#ff7f00"/>
  <rect id="a3e3cff7d3a149df9e0116502129ba3e-oa-11" height="36.17021" width="76.59574" y="382.55316" x="1814.29776" stroke="#2D2D2D" fill="#ff7f00"/>
  <rect id="a3e3cff7d3a149df9e0116502129ba3e-oa-12" height="131.91489" width="240.42553" y="461.27656" x="1801.5318" stroke="#2D2D2D" fill="#ff7f00"/>
  <rect id="a3e3cff7d3a149df9e0116502129ba3e-oa-13" height="36.17021" width="142.55319" y="610.21272" x="1814.29776" stroke="#2D2D2D" fill="#ff7f00"/>
  <rect id="a3e3cff7d3a149df9e0116502129ba3e-oa-14" height="85.10638" width="212.76595" y="714.46804" x="1805.78712" stroke="#2D2D2D" fill="#ff7f00"/>
  <rect id="a3e3cff7d3a149df9e0116502129ba3e-oa-15" height="68.0851" width="46.80851" y="852.76591" x="1807.91478" stroke="#2D2D2D" fill="#ff7f00"/>
 </g>
</svg>