<svg xmlns="http://www.w3.org/2000/svg" width="1869.9999999999998" height="1386">
 <!-- Created with Image Occlusion Enhanced -->
 <g>
  <title>Labels</title>
 </g>
 <g>
  <title>Masks</title>
  <rect id="a61244a867b14906afddb71372c43ee3-oa-1" height="52.77778" width="86.11111" y="325.11114" x="835.5555" stroke="#2D2D2D" fill="#ff0000"/>
  <rect id="a61244a867b14906afddb71372c43ee3-oa-2" height="47.22222" width="138.88889" y="425.11114" x="904.99995" stroke="#2D2D2D" fill="#ff0000"/>
  <rect id="a61244a867b14906afddb71372c43ee3-oa-3" height="61.11111" width="213.88889" y="566.77781" x="702.22217" stroke="#2D2D2D" fill="#ff0000"/>
  <rect id="a61244a867b14906afddb71372c43ee3-oa-4" height="30.55556" width="288.88889" y="686.22226" x="652.22217" stroke="#2D2D2D" fill="#ff0000"/>
  <rect id="a61244a867b14906afddb71372c43ee3-oa-5" height="27.77778" width="105.55556" y="750.11115" x="732.77772" stroke="#2D2D2D" fill="#ff0000"/>
  <rect id="a61244a867b14906afddb71372c43ee3-oa-6" height="36.11111" width="350.00001" y="327.88892" x="1285.55551" stroke="#2D2D2D" fill="#ff0000"/>
  <rect id="a61244a867b14906afddb71372c43ee3-oa-7" height="19.44444" width="38.88889" y="377.88892" x="1641.11107" stroke="#2D2D2D" fill="#ff0000"/>
  <rect id="a61244a867b14906afddb71372c43ee3-oa-8" height="33.33333" width="127.77778" y="433.44448" x="1288.33329" stroke="#2D2D2D" fill="#ff0000"/>
  <rect id="a61244a867b14906afddb71372c43ee3-oa-9" height="25" width="75" y="475.11114" x="1374.4444" stroke="#2D2D2D" fill="#ff0000"/>
  <rect id="a61244a867b14906afddb71372c43ee3-oa-10" height="41.66667" width="105.55556" y="575.11114" x="1379.99996" stroke="#2D2D2D" fill="#ff0000"/>
  <rect id="a61244a867b14906afddb71372c43ee3-oa-11" height="27.77778" width="197.22223" y="652.88892" x="1288.33329" stroke="#2D2D2D" fill="#ff0000"/>
  <rect id="a61244a867b14906afddb71372c43ee3-oa-12" height="22.22222" width="36.11111" y="694.55559" x="1466.11107" stroke="#2D2D2D" fill="#ff0000"/>
  <rect id="a61244a867b14906afddb71372c43ee3-oa-13" height="30.55556" width="102.77778" y="822.33337" x="707.77772" stroke="#2D2D2D" fill="#ff0000"/>
  <rect id="a61244a867b14906afddb71372c43ee3-oa-14" height="27.77778" width="41.66667" y="880.66671" x="488.33327" stroke="#2D2D2D" fill="#ff0000"/>
  <rect id="a61244a867b14906afddb71372c43ee3-oa-15" height="38.88889" width="183.33334" y="952.88893" x="632.77772" stroke="#2D2D2D" fill="#ff0000"/>
 </g>
</svg>