<svg xmlns="http://www.w3.org/2000/svg" width="2250" height="1474">
 <!-- Created with Image Occlusion Enhanced -->
 <g>
  <title>Labels</title>
 </g>
 <g>
  <title>Masks</title>
  
  <rect id="acf0e27006594479bd5b9f550b69942b-oa-1" height="121.21212" width="275.75758" y="522.96964" x="156.06061" stroke="#2D2D2D" fill="#ff0000"/>
  <rect id="acf0e27006594479bd5b9f550b69942b-oa-2" height="72.72727" width="175.75758" y="907.81812" x="207.57576" stroke="#2D2D2D" fill="#ff0000"/>
  <rect id="acf0e27006594479bd5b9f550b69942b-oa-3" height="136.36364" width="242.42424" y="1032.06055" x="174.24242" stroke="#2D2D2D" fill="#ff0000"/>
  <rect id="acf0e27006594479bd5b9f550b69942b-oa-4" height="106.06061" width="200" y="1262.36358" x="198.48485" stroke="#2D2D2D" fill="#ff0000"/>
  <rect id="acf0e27006594479bd5b9f550b69942b-oa-5" height="60.60606" width="384.84848" y="162.36358" x="1598.48485" stroke="#2D2D2D" fill="#ff0000"/>
  <rect id="acf0e27006594479bd5b9f550b69942b-oa-6" height="51.51515" width="300" y="265.39388" x="1595.45455" stroke="#2D2D2D" fill="#ff0000"/>
  <rect id="acf0e27006594479bd5b9f550b69942b-oa-7" height="51.51515" width="372.72727" y="401.75751" x="1580.30303" stroke="#2D2D2D" fill="#ff0000"/>
  <rect id="acf0e27006594479bd5b9f550b69942b-oa-8" height="48.48485" width="321.21212" y="498.72721" x="1583.33333" stroke="#2D2D2D" fill="#ff0000"/>
  <rect id="acf0e27006594479bd5b9f550b69942b-oa-9" height="48.48485" width="127.27273" y="622.96964" x="1586.36364" stroke="#2D2D2D" fill="#ff0000"/>
  <rect id="acf0e27006594479bd5b9f550b69942b-oa-10" height="51.51515" width="157.57576" y="741.15145" x="1592.42424" stroke="#2D2D2D" fill="#ff0000"/>
  <rect id="acf0e27006594479bd5b9f550b69942b-oa-11" height="45.45455" width="396.9697" y="816.90903" x="1586.36364" stroke="#2D2D2D" fill="#ff0000"/>
  <rect id="acf0e27006594479bd5b9f550b69942b-oa-12" height="39.39394" width="315.15152" y="938.12115" x="1589.39394" stroke="#2D2D2D" fill="#ff0000"/>
  <rect id="acf0e27006594479bd5b9f550b69942b-oa-13" height="45.45455" width="166.66667" y="1062.36358" x="1577.27273" stroke="#2D2D2D" fill="#ff0000"/>
  <rect id="acf0e27006594479bd5b9f550b69942b-oa-14" height="48.48485" width="212.12121" y="119.93933" x="874.24242" stroke="#2D2D2D" fill="#ff0000"/>
  <rect id="acf0e27006594479bd5b9f550b69942b-oa-15" height="127.27273" width="227.27273" y="432.06055" x="877.27273" stroke="#2D2D2D" fill="#ff0000"/>
  <rect id="acf0e27006594479bd5b9f550b69942b-oa-16" height="103.0303" width="224.24242" y="1053.27267" x="871.21212" stroke="#2D2D2D" fill="#ff0000"/>
  <rect id="acf0e27006594479bd5b9f550b69942b-oa-17" height="306.06061" width="75.75758" y="1122.96964" x="1334.84848" stroke="#2D2D2D" fill="#7fff00"/>
 </g>
</svg>