<svg xmlns="http://www.w3.org/2000/svg" width="1640" height="1738">
 <!-- Created with Image Occlusion Enhanced -->
 <g>
  <title>Labels</title>
 </g>
 <g>
  <title>Masks</title>
  <rect id="b02dd57ef1fa4bbfba30a3eb414b9608-oa-1" height="60.71428" width="164.28571" y="101.28566" x="331.42852" stroke="#2D2D2D" fill="#007fff"/>
  <rect id="b02dd57ef1fa4bbfba30a3eb414b9608-oa-2" height="46.42857" width="75" y="261.99994" x="127.8571" stroke="#2D2D2D" fill="#007fff"/>
  <rect id="b02dd57ef1fa4bbfba30a3eb414b9608-oa-3" height="39.28571" width="67.85714" y="711.99993" x="124.28567" stroke="#2D2D2D" fill="#007fff"/>
  <rect id="b02dd57ef1fa4bbfba30a3eb414b9608-oa-4" height="46.42857" width="171.42857" y="1329.85705" x="156.42852" stroke="#2D2D2D" fill="#007fff"/>
  <rect id="b02dd57ef1fa4bbfba30a3eb414b9608-oa-5" height="64.28571" width="349.99999" y="261.99994" x="481.42852" stroke="#2D2D2D" fill="#007fff"/>
  <rect id="b02dd57ef1fa4bbfba30a3eb414b9608-oa-6" height="75" width="328.57142" y="383.42851" x="495.71423" stroke="#2D2D2D" fill="#007fff"/>
  <rect id="b02dd57ef1fa4bbfba30a3eb414b9608-oa-7" height="50" width="242.85714" y="604.85707" x="542.1428" stroke="#2D2D2D" fill="#007fff"/>
  <rect id="b02dd57ef1fa4bbfba30a3eb414b9608-oa-8" height="71.42857" width="317.85713" y="722.71421" x="495.71423" stroke="#2D2D2D" fill="#007fff"/>
  <rect id="b02dd57ef1fa4bbfba30a3eb414b9608-oa-9" height="82.14285" width="303.57142" y="826.28564" x="517.1428" stroke="#2D2D2D" fill="#007fff"/>
  <rect id="b02dd57ef1fa4bbfba30a3eb414b9608-oa-10" height="78.57143" width="317.85713" y="954.85706" x="502.85709" stroke="#2D2D2D" fill="#007fff"/>
  <rect id="b02dd57ef1fa4bbfba30a3eb414b9608-oa-11" height="75" width="264.28571" y="1165.57134" x="531.42851" stroke="#2D2D2D" fill="#007fff"/>
  <rect id="b02dd57ef1fa4bbfba30a3eb414b9608-oa-12" height="71.42857" width="267.85714" y="1279.85705" x="517.1428" stroke="#2D2D2D" fill="#007fff"/>
  <rect id="b02dd57ef1fa4bbfba30a3eb414b9608-oa-13" height="67.85714" width="228.57142" y="1394.14276" x="556.42851" stroke="#2D2D2D" fill="#007fff"/>
  <rect id="b02dd57ef1fa4bbfba30a3eb414b9608-oa-14" height="78.57143" width="132.14285" y="1515.57133" x="595.71423" stroke="#2D2D2D" fill="#007fff"/>
  <rect id="b02dd57ef1fa4bbfba30a3eb414b9608-oa-15" height="71.42857" width="374.99999" y="1636.9999" x="492.1428" stroke="#2D2D2D" fill="#007fff"/>
  <rect id="b02dd57ef1fa4bbfba30a3eb414b9608-oa-16" height="39.28571" width="89.28571" y="279.85708" x="924.28565" stroke="#2D2D2D" fill="#007fff"/>
  <rect id="b02dd57ef1fa4bbfba30a3eb414b9608-oa-17" height="42.85714" width="35.71428" y="397.71422" x="1288.57135" stroke="#2D2D2D" fill="#007fff"/>
  <rect id="b02dd57ef1fa4bbfba30a3eb414b9608-oa-18" height="35.71428" width="60.71428" y="601.28564" x="1202.85707" stroke="#2D2D2D" fill="#007fff"/>
  <rect id="b02dd57ef1fa4bbfba30a3eb414b9608-oa-19" height="21.42857" width="89.28571" y="751.28564" x="1270.71421" stroke="#2D2D2D" fill="#007fff"/>
  <rect id="b02dd57ef1fa4bbfba30a3eb414b9608-oa-20" height="25" width="157.14285" y="872.71421" x="1056.4285" stroke="#2D2D2D" fill="#007fff"/>
  <rect id="b02dd57ef1fa4bbfba30a3eb414b9608-oa-21" height="28.57143" width="78.57143" y="965.57135" x="1302.85706" stroke="#2D2D2D" fill="#007fff"/>
  <rect id="b02dd57ef1fa4bbfba30a3eb414b9608-oa-22" height="42.85714" width="221.42857" y="1272.7142" x="1027.85707" stroke="#2D2D2D" fill="#007fff"/>
 </g>
</svg>