<svg xmlns="http://www.w3.org/2000/svg" width="1288" height="1572">
 <!-- Created with Image Occlusion Enhanced -->
 <g>
  <title>Labels</title>
 </g>
 <g>
  <title>Masks</title>
  <rect id="c1a3eab83770401dbdb5d9461929e028-oa-1" height="41.93548" width="103.22581" y="144.12899" x="47.48388" stroke="#2D2D2D" fill="#ff0000"/>
  <rect id="c1a3eab83770401dbdb5d9461929e028-oa-2" height="29.03226" width="70.96774" y="137.67738" x="244.25807" stroke="#2D2D2D" fill="#ff0000"/>
  <rect id="c1a3eab83770401dbdb5d9461929e028-oa-3" height="32.25806" width="54.83871" y="131.22577" x="573.29033" stroke="#2D2D2D" fill="#ff0000"/>
  <rect id="c1a3eab83770401dbdb5d9461929e028-oa-4" height="32.25806" width="96.77419" y="131.22577" x="892.64517" stroke="#2D2D2D" fill="#ff0000"/>
  <rect id="c1a3eab83770401dbdb5d9461929e028-oa-5" height="22.58065" width="96.77419" y="340.90319" x="44.25807" stroke="#2D2D2D" fill="#ff0000"/>
  <rect id="c1a3eab83770401dbdb5d9461929e028-oa-6" height="32.25806" width="116.12903" y="318.32254" x="241.03226" stroke="#2D2D2D" fill="#ff0000"/>
  <rect id="c1a3eab83770401dbdb5d9461929e028-oa-7" height="35.48387" width="138.70968" y="318.32254" x="737.80646" stroke="#2D2D2D" fill="#ff0000"/>
  <rect id="c1a3eab83770401dbdb5d9461929e028-oa-8" height="48.3871" width="80.64516" y="586.06448" x="50.70968" stroke="#2D2D2D" fill="#ff0000"/>
  <rect id="c1a3eab83770401dbdb5d9461929e028-oa-9" height="64.51613" width="77.41936" y="576.38706" x="244.25807" stroke="#2D2D2D" fill="#ff0000"/>
  <rect id="c1a3eab83770401dbdb5d9461929e028-oa-10" height="41.93548" width="103.22581" y="508.64513" x="570.06452" stroke="#2D2D2D" fill="#ff0000"/>
  <rect id="c1a3eab83770401dbdb5d9461929e028-oa-11" height="25.80645" width="112.90323" y="508.64513" x="886.19356" stroke="#2D2D2D" fill="#ff0000"/>
  <rect id="c1a3eab83770401dbdb5d9461929e028-oa-12" height="58.06452" width="90.32258" y="666.70964" x="895.87097" stroke="#2D2D2D" fill="#ff0000"/>
  <rect id="c1a3eab83770401dbdb5d9461929e028-oa-13" height="25.80645" width="100" y="669.93545" x="570.06452" stroke="#2D2D2D" fill="#ff0000"/>
  <rect id="c1a3eab83770401dbdb5d9461929e028-oa-14" height="45.16129" width="103.22581" y="866.70964" x="47.48388" stroke="#2D2D2D" fill="#ff0000"/>
  <rect id="c1a3eab83770401dbdb5d9461929e028-oa-15" height="25.80645" width="148.3871" y="860.25803" x="250.70968" stroke="#2D2D2D" fill="#ff0000"/>
  <rect id="c1a3eab83770401dbdb5d9461929e028-oa-16" height="29.03226" width="164.51613" y="857.03222" x="741.03226" stroke="#2D2D2D" fill="#ff0000"/>
  <rect id="c1a3eab83770401dbdb5d9461929e028-oa-17" height="67.74194" width="90.32258" y="1105.41932" x="53.93549" stroke="#2D2D2D" fill="#ff0000"/>
  <rect id="c1a3eab83770401dbdb5d9461929e028-oa-18" height="25.80645" width="83.87097" y="1044.129" x="253.93549" stroke="#2D2D2D" fill="#ff0000"/>
  <rect id="c1a3eab83770401dbdb5d9461929e028-oa-19" height="54.83871" width="70.96774" y="1047.3548" x="576.51613" stroke="#2D2D2D" fill="#ff0000"/>
  <rect id="c1a3eab83770401dbdb5d9461929e028-oa-20" height="61.29032" width="67.74194" y="1047.3548" x="899.09678" stroke="#2D2D2D" fill="#ff0000"/>
  <rect id="c1a3eab83770401dbdb5d9461929e028-oa-21" height="12.90323" width="109.67742" y="1218.32255" x="376.51613" stroke="#2D2D2D" fill="#ff0000"/>
  <rect id="c1a3eab83770401dbdb5d9461929e028-oa-22" height="25.80645" width="93.54839" y="1215.09674" x="708.7742" stroke="#2D2D2D" fill="#ff0000"/>
  <rect id="c1a3eab83770401dbdb5d9461929e028-oa-23" height="77.41936" width="103.22581" y="1357.03222" x="50.70968" stroke="#2D2D2D" fill="#ff0000"/>
  <rect id="c1a3eab83770401dbdb5d9461929e028-oa-24" height="29.03226" width="64.51613" y="1382.83868" x="308.7742" stroke="#2D2D2D" fill="#ff0000"/>
  <rect id="c1a3eab83770401dbdb5d9461929e028-oa-25" height="25.80645" width="145.16129" y="1386.06448" x="512.00001" stroke="#2D2D2D" fill="#ff0000"/>
  <rect id="c1a3eab83770401dbdb5d9461929e028-oa-26" height="29.03226" width="109.67742" y="1392.5161" x="782.96775" stroke="#2D2D2D" fill="#ff0000"/>
  <rect id="c1a3eab83770401dbdb5d9461929e028-oa-27" height="22.58065" width="109.67742" y="1389.29029" x="1015.22581" stroke="#2D2D2D" fill="#ff0000"/>
 </g>
</svg>