<svg xmlns="http://www.w3.org/2000/svg" width="2490" height="1116">
 <!-- Created with Image Occlusion Enhanced -->
 <g>
  <title>Labels</title>
 </g>
 <g>
  <title>Masks</title>
  <rect id="c6346f78c71e48afbae64cbcb81987a2-oa-1" height="76.19048" width="261.90476" y="19.71428" x="119.52364" stroke="#2D2D2D" fill="#ff7f00"/>
  <rect id="c6346f78c71e48afbae64cbcb81987a2-oa-2" height="61.90476" width="119.04762" y="126.85714" x="1140.95221" stroke="#2D2D2D" fill="#ff7f00"/>
  <rect id="c6346f78c71e48afbae64cbcb81987a2-oa-3" height="61.90476" width="152.38095" y="476.85714" x="524.28554" stroke="#2D2D2D" fill="#ff7f00"/>
  <rect id="c6346f78c71e48afbae64cbcb81987a2-oa-4" height="54.7619" width="164.28571" y="486.38095" x="979.04745" stroke="#2D2D2D" fill="#ff7f00"/>
  <rect id="c6346f78c71e48afbae64cbcb81987a2-oa-5" height="57.14286" width="109.52381" y="488.7619" x="1248.09506" stroke="#2D2D2D" fill="#ff7f00"/>
  <rect id="c6346f78c71e48afbae64cbcb81987a2-oa-6" height="64.28571" width="402.38095" y="481.61904" x="1374.28554" stroke="#2D2D2D" fill="#ff7f00"/>
  <rect id="c6346f78c71e48afbae64cbcb81987a2-oa-7" height="71.42857" width="140.47619" y="476.85714" x="1881.4284" stroke="#2D2D2D" fill="#ff7f00"/>
  <rect id="c6346f78c71e48afbae64cbcb81987a2-oa-8" height="64.28571" width="188.09524" y="481.61904" x="2179.04744" stroke="#2D2D2D" fill="#ff7f00"/>
  <rect id="c6346f78c71e48afbae64cbcb81987a2-oa-9" height="47.61905" width="304.7619" y="555.42857" x="883.80935" stroke="#2D2D2D" fill="#ff7f00"/>
  <rect id="c6346f78c71e48afbae64cbcb81987a2-oa-10" height="61.90476" width="433.33333" y="698.28571" x="452.85697" stroke="#2D2D2D" fill="#ff7f00"/>
  <rect id="c6346f78c71e48afbae64cbcb81987a2-oa-11" height="47.61905" width="250" y="631.61904" x="112.38078" stroke="#2D2D2D" fill="#ff7f00"/>
  <rect id="c6346f78c71e48afbae64cbcb81987a2-oa-12" height="52.38095" width="178.57143" y="788.7619" x="117.14269" stroke="#2D2D2D" fill="#ff7f00"/>
  <rect id="c6346f78c71e48afbae64cbcb81987a2-oa-13" height="64.28571" width="502.38095" y="857.80952" x="469.52364" stroke="#2D2D2D" fill="#ff7f00"/>
  <rect id="c6346f78c71e48afbae64cbcb81987a2-oa-14" height="57.14286" width="242.85714" y="941.14285" x="126.6665" stroke="#2D2D2D" fill="#ff7f00"/>
  <rect id="c6346f78c71e48afbae64cbcb81987a2-oa-15" height="54.7619" width="135.71429" y="1024.47618" x="469.52364" stroke="#2D2D2D" fill="#ff7f00"/>
  <rect id="c6346f78c71e48afbae64cbcb81987a2-oa-16" height="73.80952" width="473.80952" y="405.42857" x="445.71411" stroke="#2D2D2D" fill="#ff7f00"/>
 </g>
</svg>