<svg xmlns="http://www.w3.org/2000/svg" width="2592" height="1580">
 <!-- Created with Image Occlusion Enhanced -->
 <g>
  <title>Labels</title>
 </g>
 <g>
  <title>Masks</title>
  <rect id="ccd87b4caf084552968133ee9ecae21d-oa-1" height="61.29032" width="374.19356" y="20.00004" x="159.61278" stroke="#2D2D2D" fill="#ff7f00"/>
  <rect id="ccd87b4caf084552968133ee9ecae21d-oa-2" height="67.74194" width="316.12904" y="190.96779" x="956.38699" stroke="#2D2D2D" fill="#ff7f00"/>
  <rect id="ccd87b4caf084552968133ee9ecae21d-oa-3" height="64.51613" width="464.51614" y="184.51617" x="1569.29023" stroke="#2D2D2D" fill="#ff7f00"/>
  <rect id="ccd87b4caf084552968133ee9ecae21d-oa-4" height="70.96774" width="403.22582" y="265.16134" x="875.74183" stroke="#2D2D2D" fill="#ff7f00"/>
  <rect id="ccd87b4caf084552968133ee9ecae21d-oa-5" height="64.51613" width="480.64517" y="420.00005" x="1198.32248" stroke="#2D2D2D" fill="#ff7f00"/>
  <rect id="ccd87b4caf084552968133ee9ecae21d-oa-6" height="64.51613" width="493.5484" y="584.51618" x="843.48377" stroke="#2D2D2D" fill="#ff7f00"/>
  <rect id="ccd87b4caf084552968133ee9ecae21d-oa-7" height="77.41936" width="122.58065" y="665.16135" x="933.80635" stroke="#2D2D2D" fill="#ff7f00"/>
  <rect id="ccd87b4caf084552968133ee9ecae21d-oa-8" height="70.96774" width="448.38711" y="665.16135" x="1124.12893" stroke="#2D2D2D" fill="#ff7f00"/>
  <rect id="ccd87b4caf084552968133ee9ecae21d-oa-9" height="58.06452" width="200" y="590.9678" x="624.12892" stroke="#2D2D2D" fill="#ff7f00"/>
  <rect id="ccd87b4caf084552968133ee9ecae21d-oa-10" height="83.87097" width="290.32259" y="668.38715" x="627.35473" stroke="#2D2D2D" fill="#ff7f00"/>
  <rect id="ccd87b4caf084552968133ee9ecae21d-oa-11" height="61.29032" width="267.74194" y="110.32262" x="278.96762" stroke="#2D2D2D" fill="#ff7f00"/>
  <rect id="ccd87b4caf084552968133ee9ecae21d-oa-12" height="67.74194" width="261.29033" y="332.90327" x="288.64504" stroke="#2D2D2D" fill="#ff7f00"/>
  <rect id="ccd87b4caf084552968133ee9ecae21d-oa-13" height="70.96774" width="216.12904" y="494.1936" x="272.51601" stroke="#2D2D2D" fill="#ff7f00"/>
  <rect id="ccd87b4caf084552968133ee9ecae21d-oa-14" height="51.6129" width="132.25807" y="994.19361" x="278.96762" stroke="#2D2D2D" fill="#ff7f00"/>
  <rect id="ccd87b4caf084552968133ee9ecae21d-oa-15" height="67.74194" width="338.70969" y="1078.06458" x="1204.7741" stroke="#2D2D2D" fill="#ff7f00"/>
  <rect id="ccd87b4caf084552968133ee9ecae21d-oa-16" height="64.51613" width="509.67743" y="1165.16136" x="1130.58055" stroke="#2D2D2D" fill="#ff7f00"/>
  <rect id="ccd87b4caf084552968133ee9ecae21d-oa-17" height="45.16129" width="138.70968" y="1252.25814" x="1195.09668" stroke="#2D2D2D" fill="#ff7f00"/>
  <rect id="ccd87b4caf084552968133ee9ecae21d-oa-18" height="61.29032" width="412.90324" y="1316.77427" x="285.41924" stroke="#2D2D2D" fill="#ff7f00"/>
  <rect stroke="#2D2D2D" id="ccd87b4caf084552968133ee9ecae21d-oa-19" height="61.29032" width="619.35485" y="1397.41943" x="498.32247" fill="#ff7f00"/>
  <rect id="ccd87b4caf084552968133ee9ecae21d-oa-20" height="67.74194" width="1400.00003" y="1481.2904" x="491.87085" stroke-linecap="null" stroke-linejoin="null" stroke-dasharray="null" stroke="#2D2D2D" fill="#ff7f00"/>
 </g>
</svg>