<svg xmlns="http://www.w3.org/2000/svg" width="2716" height="828">
 <!-- Created with Image Occlusion Enhanced -->
 <g>
  <title>Labels</title>
 </g>
 <g>
  <title>Masks</title>
  <rect id="cf8f17e966324556b7e58aea5e04da73-oa-1" height="150" width="54.76191" y="452.95235" x="176.85722" stroke="#2D2D2D" fill="#ff0000"/>
  <rect id="cf8f17e966324556b7e58aea5e04da73-oa-2" height="50" width="204.76191" y="26.76186" x="422.09532" stroke="#2D2D2D" fill="#ff0000"/>
  <rect id="cf8f17e966324556b7e58aea5e04da73-oa-3" height="35.71429" width="421.42858" y="112.47615" x="512.57151" stroke="#2D2D2D" fill="#ff0000"/>
  <rect id="cf8f17e966324556b7e58aea5e04da73-oa-4" height="47.61905" width="747.61907" y="191.04758" x="412.57151" stroke="#2D2D2D" fill="#ff0000"/>
  <rect id="cf8f17e966324556b7e58aea5e04da73-oa-5" height="50" width="188.09524" y="271.99996" x="514.95246" stroke="#2D2D2D" fill="#ff0000"/>
  <rect id="cf8f17e966324556b7e58aea5e04da73-oa-6" height="40.47619" width="719.04764" y="357.71425" x="412.57151" stroke="#2D2D2D" fill="#ff0000"/>
  <rect id="cf8f17e966324556b7e58aea5e04da73-oa-7" height="38.09524" width="319.04763" y="441.04758" x="522.09532" stroke="#2D2D2D" fill="#ff0000"/>
  <rect id="cf8f17e966324556b7e58aea5e04da73-oa-8" height="35.71429" width="371.42858" y="526.76187" x="424.47627" stroke="#2D2D2D" fill="#ff0000"/>
  <rect id="cf8f17e966324556b7e58aea5e04da73-oa-9" height="57.14286" width="238.09524" y="595.80949" x="514.95246" stroke="#2D2D2D" fill="#ff0000"/>
  <rect id="cf8f17e966324556b7e58aea5e04da73-oa-10" height="35.71429" width="254.76191" y="691.04759" x="431.61913" stroke="#2D2D2D" fill="#ff0000"/>
  <rect id="cf8f17e966324556b7e58aea5e04da73-oa-11" height="40.47619" width="564.28573" y="769.61902" x="517.33342" stroke="#2D2D2D" fill="#ff0000"/>
  <rect id="cf8f17e966324556b7e58aea5e04da73-oa-12" height="197.61905" width="64.28572" y="433.90473" x="1731.61916" stroke="#2D2D2D" fill="#ff0000"/>
  <rect id="cf8f17e966324556b7e58aea5e04da73-oa-13" height="54.76191" width="173.80953" y="260.0952" x="1888.76202" stroke="#2D2D2D" fill="#ff0000"/>
  <rect id="cf8f17e966324556b7e58aea5e04da73-oa-14" height="40.47619" width="630.9524" y="355.3333" x="1991.14298" stroke="#2D2D2D" fill="#ff0000"/>
  <rect id="cf8f17e966324556b7e58aea5e04da73-oa-15" height="42.85714" width="150" y="438.66663" x="1886.38107" stroke="#2D2D2D" fill="#ff0000"/>
  <rect id="cf8f17e966324556b7e58aea5e04da73-oa-16" height="40.47619" width="192.85715" y="531.52378" x="1986.38107" stroke="#2D2D2D" fill="#ff0000"/>
 </g>
</svg>