<svg xmlns="http://www.w3.org/2000/svg" width="1242" height="1642">
 <!-- Created with Image Occlusion Enhanced -->
 <g>
  <title>Labels</title>
 </g>
 <g>
  <title>Masks</title>
  <rect id="d21ac099c9544599901625f23aaa01b6-oa-1" height="23.33333" width="70" y="751.3333" x="707.99997" stroke="#2D2D2D" fill="#ff0000"/>
  <rect id="d21ac099c9544599901625f23aaa01b6-oa-2" height="20" width="70" y="821.3333" x="754.66663" stroke="#2D2D2D" fill="#ff0000"/>
  <rect id="d21ac099c9544599901625f23aaa01b6-oa-3" height="23.33333" width="60" y="861.3333" x="1091.3333" stroke="#2D2D2D" fill="#ff0000"/>
  <rect id="d21ac099c9544599901625f23aaa01b6-oa-4" height="20" width="113.33333" y="924.66663" x="224.66664" stroke="#2D2D2D" fill="#ff0000"/>
  <rect id="d21ac099c9544599901625f23aaa01b6-oa-5" height="13.33333" width="53.33333" y="927.99997" x="694.66664" stroke="#2D2D2D" fill="#ff0000"/>
  <rect id="d21ac099c9544599901625f23aaa01b6-oa-6" height="16.66667" width="90" y="961.3333" x="744.66663" stroke="#2D2D2D" fill="#ff0000"/>
  <rect id="d21ac099c9544599901625f23aaa01b6-oa-7" height="23.33333" width="46.66667" y="1061.3333" x="444.66664" stroke="#2D2D2D" fill="#ff0000"/>
  <rect id="d21ac099c9544599901625f23aaa01b6-oa-8" height="23.33333" width="20" y="1164.66663" x="1007.99996" stroke="#2D2D2D" fill="#ff0000"/>
  <rect id="d21ac099c9544599901625f23aaa01b6-oa-9" height="26.66667" width="20" y="1194.66663" x="327.99997" stroke="#2D2D2D" fill="#ff0000"/>
  <rect id="d21ac099c9544599901625f23aaa01b6-oa-10" height="20" width="73.33333" y="1477.99996" x="284.66664" stroke="#2D2D2D" fill="#ff0000"/>
  <rect id="d21ac099c9544599901625f23aaa01b6-oa-11" height="23.33333" width="73.33333" y="1537.99996" x="281.33331" stroke="#2D2D2D" fill="#ff0000"/>
  <rect id="d21ac099c9544599901625f23aaa01b6-oa-12" height="16.66667" width="43.33333" y="1574.66663" x="281.33331" stroke="#2D2D2D" fill="#ff0000"/>
  <rect id="d21ac099c9544599901625f23aaa01b6-oa-13" height="23.33333" width="13.33333" y="1571.33329" x="754.66663" stroke="#2D2D2D" fill="#ff0000"/>
  <rect id="d21ac099c9544599901625f23aaa01b6-oa-14" height="16.66667" width="66.66667" y="1541.33329" x="1007.99996" stroke="#2D2D2D" fill="#ff0000"/>
  <rect id="d21ac099c9544599901625f23aaa01b6-oa-15" height="26.66667" width="106.66667" y="1607.99996" x="671.3333" stroke="#2D2D2D" fill="#ff0000"/>
  <rect id="d21ac099c9544599901625f23aaa01b6-oa-16" height="20" width="66.66667" y="501.33331" x="981.3333" stroke="#2D2D2D" fill="#ff0000"/>
  <rect id="d21ac099c9544599901625f23aaa01b6-oa-17" height="16.66667" width="90" y="567.99997" x="824.66663" stroke="#2D2D2D" fill="#ff0000"/>
  <rect id="d21ac099c9544599901625f23aaa01b6-oa-18" height="16.66667" width="70" y="597.99997" x="747.99997" stroke="#2D2D2D" fill="#ff0000"/>
 </g>
</svg>