<svg xmlns="http://www.w3.org/2000/svg" width="2038" height="1006">
 <!-- Created with Image Occlusion Enhanced -->
 <g>
  <title>Labels</title>
 </g>
 <g>
  <title>Masks</title>
  <rect id="d2ca82413a5e49c09ec76042f927bbac-oa-1" height="44.89796" width="248.97959" y="365.42856" x="549.75511" stroke="#2D2D2D" fill="#ff0000"/>
  <rect id="d2ca82413a5e49c09ec76042f927bbac-oa-2" height="44.89796" width="202.04082" y="361.34693" x="802.81634" stroke="#2D2D2D" fill="#ff0000"/>
  <rect id="d2ca82413a5e49c09ec76042f927bbac-oa-3" height="36.73469" width="240.81633" y="418.48979" x="431.38777" stroke="#2D2D2D" fill="#ff0000"/>
  <rect id="d2ca82413a5e49c09ec76042f927bbac-oa-4" height="30.61225" width="204.08163" y="422.57142" x="682.40818" stroke="#2D2D2D" fill="#ff0000"/>
  <rect id="d2ca82413a5e49c09ec76042f927bbac-oa-5" height="38.77551" width="51.02041" y="414.40816" x="939.55103" stroke="#2D2D2D" fill="#ff0000"/>
  <rect id="d2ca82413a5e49c09ec76042f927bbac-oa-6" height="32.65306" width="234.69388" y="469.5102" x="588.53063" stroke="#2D2D2D" fill="#ff0000"/>
  <rect id="d2ca82413a5e49c09ec76042f927bbac-oa-7" height="53.06122" width="500" y="487.87754" x="1213.02042" stroke="#2D2D2D" fill="#ff0000"/>
  <rect id="d2ca82413a5e49c09ec76042f927bbac-oa-8" height="57.14286" width="395.91837" y="706.24489" x="1272.2041" stroke="#2D2D2D" fill="#ff0000"/>
  <rect id="d2ca82413a5e49c09ec76042f927bbac-oa-9" height="40.81633" width="297.95919" y="571.55101" x="292.61226" stroke="#2D2D2D" fill="#ff0000"/>
  <rect id="d2ca82413a5e49c09ec76042f927bbac-oa-10" height="38.77551" width="136.73469" y="628.69387" x="517.10205" stroke="#2D2D2D" fill="#ff0000"/>
  <rect id="d2ca82413a5e49c09ec76042f927bbac-oa-11" height="48.97959" width="240.81633" y="677.67346" x="445.67348" stroke="#2D2D2D" fill="#ff0000"/>
  <rect id="d2ca82413a5e49c09ec76042f927bbac-oa-12" height="38.77551" width="216.32653" y="677.67346" x="686.48981" stroke="#2D2D2D" fill="#ff0000"/>
  <rect id="d2ca82413a5e49c09ec76042f927bbac-oa-13" height="40.81633" width="53.06122" y="677.67346" x="941.59185" stroke="#2D2D2D" fill="#ff0000"/>
  <rect id="d2ca82413a5e49c09ec76042f927bbac-oa-14" height="38.77551" width="222.44898" y="842.97959" x="466.08164" stroke="#2D2D2D" fill="#ff0000"/>
  <rect id="d2ca82413a5e49c09ec76042f927bbac-oa-15" height="46.93878" width="475.51021" y="924.61224" x="1227.30614" stroke="#2D2D2D" fill="#ff0000"/>
 </g>
</svg>