<svg xmlns="http://www.w3.org/2000/svg" width="1896" height="1618">
 <!-- Created with Image Occlusion Enhanced -->
 <g>
  <title>Labels</title>
 </g>
 <g>
  <title>Masks</title>
  <rect id="d9f84680067c4881841b6448b577c61c-oa-1" height="30" width="203.33334" y="208.66668" x="64.00004" stroke="#2D2D2D" fill="#0000ff"/>
  <rect id="d9f84680067c4881841b6448b577c61c-oa-2" height="33.33333" width="233.33334" y="312.00002" x="1410.66674" stroke="#2D2D2D" fill="#0000ff"/>
  <rect id="d9f84680067c4881841b6448b577c61c-oa-3" height="26.66667" width="183.33334" y="415.33336" x="474.00005" stroke="#2D2D2D" fill="#0000ff"/>
  <rect id="d9f84680067c4881841b6448b577c61c-oa-4" height="33.33333" width="26.66667" y="462.00002" x="750.66672" stroke="#2D2D2D" fill="#0000ff"/>
  <rect id="d9f84680067c4881841b6448b577c61c-oa-5" height="43.33333" width="23.33333" y="558.66669" x="974.00006" stroke="#2D2D2D" fill="#0000ff"/>
  <rect id="d9f84680067c4881841b6448b577c61c-oa-6" height="30" width="160" y="735.33336" x="387.33338" stroke="#2D2D2D" fill="#0000ff"/>
  <rect id="d9f84680067c4881841b6448b577c61c-oa-7" height="33.33333" width="93.33334" y="732.00003" x="914.00006" stroke="#2D2D2D" fill="#0000ff"/>
  <rect id="d9f84680067c4881841b6448b577c61c-oa-8" height="26.66667" width="70" y="782.00003" x="397.33338" stroke="#2D2D2D" fill="#0000ff"/>
  <rect id="d9f84680067c4881841b6448b577c61c-oa-9" height="33.33333" width="110" y="842.00003" x="907.33339" stroke="#2D2D2D" fill="#0000ff"/>
  <rect id="d9f84680067c4881841b6448b577c61c-oa-10" height="33.33333" width="26.66667" y="885.33337" x="747.33339" stroke="#2D2D2D" fill="#0000ff"/>
  <rect id="d9f84680067c4881841b6448b577c61c-oa-11" height="33.33333" width="110" y="1088.6667" x="804.00006" stroke="#2D2D2D" fill="#0000ff"/>
  <rect id="d9f84680067c4881841b6448b577c61c-oa-12" height="20" width="126.66667" y="1135.33337" x="840.66673" stroke="#2D2D2D" fill="#0000ff"/>
  <rect id="d9f84680067c4881841b6448b577c61c-oa-13" height="30" width="143.33334" y="1248.66671" x="784.00006" stroke="#2D2D2D" fill="#0000ff"/>
  <rect id="d9f84680067c4881841b6448b577c61c-oa-14" height="23.33333" width="70" y="1248.66671" x="1177.3334" stroke="#2D2D2D" fill="#0000ff"/>
  <rect id="d9f84680067c4881841b6448b577c61c-oa-15" height="30" width="46.66667" y="1338.66671" x="414.00005" stroke="#2D2D2D" fill="#0000ff"/>
  <rect id="d9f84680067c4881841b6448b577c61c-oa-16" height="36.66667" width="26.66667" y="1445.33338" x="760.66672" stroke="#2D2D2D" fill="#0000ff"/>
  <rect id="d9f84680067c4881841b6448b577c61c-oa-17" height="30" width="180" y="1508.66671" x="740.66672" stroke="#2D2D2D" fill="#0000ff"/>
  <rect id="d9f84680067c4881841b6448b577c61c-oa-18" height="26.66667" width="56.66667" y="1508.66671" x="1627.33341" stroke="#2D2D2D" fill="#0000ff"/>
 </g>
</svg>