<svg xmlns="http://www.w3.org/2000/svg" width="2220" height="1342">
 <!-- Created with Image Occlusion Enhanced -->
 <g>
  <title>Labels</title>
 </g>
 <g>
  <title>Masks</title>
  <rect id="da669c6bcf6c4713b288ac7f40c18910-oa-1" height="56.75676" width="194.59459" y="12.05403" x="336.75667" stroke="#2D2D2D" fill="#ff0000"/>
  <rect id="da669c6bcf6c4713b288ac7f40c18910-oa-2" height="56.75676" width="189.18919" y="93.13511" x="334.05397" stroke="#2D2D2D" fill="#ff0000"/>
  <rect id="da669c6bcf6c4713b288ac7f40c18910-oa-3" height="59.45946" width="210.81081" y="228.27024" x="328.64856" stroke="#2D2D2D" fill="#ff0000"/>
  <rect id="da669c6bcf6c4713b288ac7f40c18910-oa-4" height="43.24324" width="235.13513" y="325.56754" x="336.75667" stroke="#2D2D2D" fill="#ff0000"/>
  <rect id="da669c6bcf6c4713b288ac7f40c18910-oa-5" height="59.45946" width="475.67567" y="312.05403" x="777.2972" stroke="#2D2D2D" fill="#ff0000"/>
  <rect id="da669c6bcf6c4713b288ac7f40c18910-oa-6" height="51.35135" width="272.97297" y="379.62159" x="1574.59449" stroke="#2D2D2D" fill="#ff0000"/>
  <rect id="da669c6bcf6c4713b288ac7f40c18910-oa-7" height="48.64865" width="167.56756" y="525.56754" x="328.64856" stroke="#2D2D2D" fill="#ff0000"/>
  <rect id="da669c6bcf6c4713b288ac7f40c18910-oa-8" height="48.64865" width="297.29729" y="736.37834" x="325.94586" stroke="#2D2D2D" fill="#ff0000"/>
  <rect id="da669c6bcf6c4713b288ac7f40c18910-oa-9" height="54.05405" width="221.62162" y="798.5405" x="488.10802" stroke="#2D2D2D" fill="#ff0000"/>
  <rect id="da669c6bcf6c4713b288ac7f40c18910-oa-10" height="51.35135" width="472.97296" y="1033.67563" x="496.21613" stroke="#2D2D2D" fill="#ff0000"/>
  <rect id="da669c6bcf6c4713b288ac7f40c18910-oa-11" height="37.83784" width="659.45945" y="1101.2432" x="444.86478" stroke="#2D2D2D" fill="#ff0000"/>
  <rect id="da669c6bcf6c4713b288ac7f40c18910-oa-12" height="37.83784" width="335.13513" y="1214.75671" x="501.62153" stroke="#2D2D2D" fill="#ff0000"/>
  <rect id="da669c6bcf6c4713b288ac7f40c18910-oa-13" height="43.24324" width="227.02702" y="1271.51347" x="488.10802" stroke="#2D2D2D" fill="#007fff"/>
  <rect id="da669c6bcf6c4713b288ac7f40c18910-oa-14" height="51.35135" width="256.75675" y="1268.81077" x="739.45937" stroke="#2D2D2D" fill="#007fff"/>
  <rect id="da669c6bcf6c4713b288ac7f40c18910-oa-15" height="45.94595" width="702.70269" y="1271.51347" x="1082.7026" stroke="#2D2D2D" fill="#007fff"/>
  <rect id="da669c6bcf6c4713b288ac7f40c18910-oa-16" height="45.94595" width="227.02702" y="809.35131" x="1069.18909" stroke="#2D2D2D" fill="#007fff"/>
  <rect id="da669c6bcf6c4713b288ac7f40c18910-oa-17" height="56.75676" width="197.29729" y="376.91889" x="563.78369" stroke="#2D2D2D" fill="#007fff"/>
  <rect id="da669c6bcf6c4713b288ac7f40c18910-oa-18" height="56.75676" width="305.4054" y="441.78375" x="798.91883" stroke="#2D2D2D" fill="#007fff"/>
 </g>
</svg>