<svg xmlns="http://www.w3.org/2000/svg" width="2014.0000000000002" height="1576">
 <!-- Created with Image Occlusion Enhanced -->
 <g>
  <title>Labels</title>
 </g>
 <g>
  <title>Masks</title>
  <rect id="dadaaf86c6f64651b5726d09de44b5b1-oa-1" height="70.96774" width="390.32258" y="62.70969" x="260.19341" stroke="#2D2D2D" fill="#ff0000"/>
  <rect id="dadaaf86c6f64651b5726d09de44b5b1-oa-2" height="64.51613" width="425.80645" y="69.1613" x="1476.32245" stroke="#2D2D2D" fill="#ff0000"/>
  <rect id="dadaaf86c6f64651b5726d09de44b5b1-oa-3" height="61.29032" width="341.93549" y="782.06453" x="266.64503" stroke="#2D2D2D" fill="#ff0000"/>
  <rect id="dadaaf86c6f64651b5726d09de44b5b1-oa-4" height="58.06452" width="280.64516" y="772.38711" x="1650.516" stroke="#2D2D2D" fill="#ff0000"/>
  <rect id="dadaaf86c6f64651b5726d09de44b5b1-oa-5" height="35.48387" width="551.61291" y="1056.25808" x="382.77406" stroke="#2D2D2D" fill="#ff0000"/>
  <rect id="dadaaf86c6f64651b5726d09de44b5b1-oa-6" height="32.25806" width="270.96774" y="1107.87098" x="834.38697" stroke="#2D2D2D" fill="#ff0000"/>
  <rect id="dadaaf86c6f64651b5726d09de44b5b1-oa-7" height="38.70968" width="209.67742" y="1214.32259" x="389.22567" stroke="#2D2D2D" fill="#ff0000"/>
  <rect id="dadaaf86c6f64651b5726d09de44b5b1-oa-8" height="38.70968" width="819.35484" y="1278.83872" x="382.77406" stroke="#2D2D2D" fill="#ff0000"/>
  <rect id="dadaaf86c6f64651b5726d09de44b5b1-oa-9" height="32.25806" width="125.80645" y="1394.96776" x="385.99987" stroke="#2D2D2D" fill="#ff0000"/>
  <rect id="dadaaf86c6f64651b5726d09de44b5b1-oa-10" height="22.58065" width="506.45162" y="1462.70969" x="569.87084" stroke="#2D2D2D" fill="#ff0000"/>
  <rect id="dadaaf86c6f64651b5726d09de44b5b1-oa-11" height="54.83871" width="129.03226" y="304.64517" x="321.48374" stroke="#2D2D2D" fill="#ff0000"/>
  <rect id="dadaaf86c6f64651b5726d09de44b5b1-oa-12" height="70.96774" width="174.19355" y="301.41936" x="560.19342" stroke="#2D2D2D" fill="#ff0000"/>
  <rect id="dadaaf86c6f64651b5726d09de44b5b1-oa-13" height="93.54839" width="164.51613" y="291.74194" x="847.29019" stroke="#2D2D2D" fill="#ff0000"/>
  <rect id="dadaaf86c6f64651b5726d09de44b5b1-oa-14" height="29.03226" width="187.09678" y="320.7742" x="1095.67729" stroke="#2D2D2D" fill="#ff0000"/>
  <rect id="dadaaf86c6f64651b5726d09de44b5b1-oa-15" height="100" width="174.19355" y="285.29033" x="1373.09665" stroke="#2D2D2D" fill="#ff0000"/>
  <rect id="dadaaf86c6f64651b5726d09de44b5b1-oa-16" height="61.29032" width="135.48387" y="298.19356" x="1660.19342" stroke="#2D2D2D" fill="#ff0000"/>
 </g>
</svg>