<svg xmlns="http://www.w3.org/2000/svg" width="2368" height="1152">
 <!-- Created with Image Occlusion Enhanced -->
 <g>
  <title>Labels</title>
 </g>
 <g>
  <title>Masks</title>
  <rect id="e057ea4fecfd40348a7296329f91f8e2-oa-1" height="51.16279" width="27.90698" y="17.76748" x="227.34884" stroke="#2D2D2D" fill="#0000ff"/>
  <rect id="e057ea4fecfd40348a7296329f91f8e2-oa-2" height="53.48837" width="188.3721" y="15.44189" x="278.51164" stroke="#2D2D2D" fill="#0000ff"/>
  <rect id="e057ea4fecfd40348a7296329f91f8e2-oa-3" height="48.83721" width="130.23256" y="17.76748" x="743.62793" stroke="#2D2D2D" fill="#0000ff"/>
  <rect id="e057ea4fecfd40348a7296329f91f8e2-oa-4" height="44.18605" width="25.5814" y="236.37213" x="757.58142" stroke="#2D2D2D" fill="#0000ff"/>
  <rect id="e057ea4fecfd40348a7296329f91f8e2-oa-5" height="39.53488" width="286.04652" y="313.11632" x="1080.83724" stroke="#2D2D2D" fill="#0000ff"/>
  <rect id="e057ea4fecfd40348a7296329f91f8e2-oa-6" height="34.88372" width="158.13954" y="378.2326" x="752.93025" stroke="#2D2D2D" fill="#0000ff"/>
  <rect id="e057ea4fecfd40348a7296329f91f8e2-oa-7" height="41.86047" width="130.23256" y="454.97679" x="752.93025" stroke="#2D2D2D" fill="#0000ff"/>
  <rect id="e057ea4fecfd40348a7296329f91f8e2-oa-8" height="34.88372" width="202.32559" y="454.97679" x="959.907" stroke="#2D2D2D" fill="#0000ff"/>
  <rect id="e057ea4fecfd40348a7296329f91f8e2-oa-9" height="37.2093" width="32.55814" y="529.3954" x="222.69768" stroke="#2D2D2D" fill="#0000ff"/>
  <rect id="e057ea4fecfd40348a7296329f91f8e2-oa-10" height="44.18605" width="590.69769" y="522.41865" x="280.83722" stroke="#2D2D2D" fill="#0000ff"/>
  <rect id="e057ea4fecfd40348a7296329f91f8e2-oa-11" height="44.18605" width="123.25582" y="522.41865" x="918.04654" stroke="#2D2D2D" fill="#0000ff"/>
  <rect id="e057ea4fecfd40348a7296329f91f8e2-oa-12" height="46.51163" width="148.83721" y="520.09307" x="1213.39538" stroke="#2D2D2D" fill="#0000ff"/>
  <rect id="e057ea4fecfd40348a7296329f91f8e2-oa-13" height="37.2093" width="55.81396" y="601.48842" x="1215.72097" stroke="#2D2D2D" fill="#0000ff"/>
  <rect id="e057ea4fecfd40348a7296329f91f8e2-oa-14" height="30.23256" width="204.65117" y="734.04657" x="1552.93028" stroke="#2D2D2D" fill="#0000ff"/>
  <rect id="e057ea4fecfd40348a7296329f91f8e2-oa-15" height="32.55814" width="260.46512" y="796.83727" x="1043.62794" stroke="#2D2D2D" fill="#0000ff"/>
  <rect id="e057ea4fecfd40348a7296329f91f8e2-oa-16" height="37.2093" width="141.86047" y="875.90704" x="966.88375" stroke="#2D2D2D" fill="#0000ff"/>
  <rect id="e057ea4fecfd40348a7296329f91f8e2-oa-17" height="34.88372" width="27.90698" y="941.02332" x="225.02326" stroke="#2D2D2D" fill="#0000ff"/>
  <rect id="e057ea4fecfd40348a7296329f91f8e2-oa-18" height="48.83721" width="634.88374" y="931.72099" x="283.1628" stroke="#2D2D2D" fill="#0000ff"/>
 </g>
</svg>