<svg xmlns="http://www.w3.org/2000/svg" width="1865.9999999999998" height="1715.9999999999998">
 <!-- Created with Image Occlusion Enhanced -->
 <g>
  <title>Labels</title>
 </g>
 <g>
  <title>Masks</title>
  <rect id="e75a7650340b405aa32c42167f3df1d9-oa-1" height="178.78787" width="54.54545" y="174.90899" x="664.30291" stroke="#2D2D2D" fill="#ff0000"/>
  <rect id="e75a7650340b405aa32c42167f3df1d9-oa-2" height="36.36363" width="75.75757" y="87.03021" x="797.63624" stroke="#2D2D2D" fill="#ff0000"/>
  <rect id="e75a7650340b405aa32c42167f3df1d9-oa-3" height="36.36363" width="84.84848" y="83.9999" x="1573.39378" stroke="#2D2D2D" fill="#ff0000"/>
  <rect id="e75a7650340b405aa32c42167f3df1d9-oa-4" height="30.30303" width="109.0909" y="144.60596" x="1118.84834" stroke="#2D2D2D" fill="#ff0000"/>
  <rect id="e75a7650340b405aa32c42167f3df1d9-oa-5" height="36.36363" width="100" y="459.75746" x="1130.96955" stroke="#2D2D2D" fill="#ff0000"/>
  <rect id="e75a7650340b405aa32c42167f3df1d9-oa-6" height="42.42424" width="60.60606" y="296.12111" x="761.2726" stroke="#2D2D2D" fill="#ff0000"/>
  <rect id="e75a7650340b405aa32c42167f3df1d9-oa-7" height="39.39394" width="63.63636" y="377.93928" x="846.12108" stroke="#2D2D2D" fill="#ff0000"/>
  <rect id="e75a7650340b405aa32c42167f3df1d9-oa-8" height="36.36363" width="45.45454" y="293.0908" x="927.93926" stroke="#2D2D2D" fill="#ff0000"/>
  <rect id="e75a7650340b405aa32c42167f3df1d9-oa-9" height="30.30303" width="51.51515" y="305.21201" x="1082.48471" stroke="#2D2D2D" fill="#ff0000"/>
  <rect id="e75a7650340b405aa32c42167f3df1d9-oa-10" height="33.33333" width="72.72727" y="402.18171" x="1179.4544" stroke="#2D2D2D" fill="#ff0000"/>
  <rect id="e75a7650340b405aa32c42167f3df1d9-oa-11" height="42.42424" width="45.45454" y="311.27262" x="1279.4544" stroke="#2D2D2D" fill="#ff0000"/>
  <rect id="e75a7650340b405aa32c42167f3df1d9-oa-12" height="109.0909" width="36.36363" y="259.75747" x="1027.93926" stroke="#2D2D2D" fill="#ff0000"/>
  <rect id="e75a7650340b405aa32c42167f3df1d9-oa-13" height="148.48484" width="39.39394" y="250.66656" x="1346.12106" stroke="#2D2D2D" fill="#ff0000"/>
  <rect id="e75a7650340b405aa32c42167f3df1d9-oa-14" height="39.39394" width="72.72727" y="183.9999" x="1546.12105" stroke="#2D2D2D" fill="#ff0000"/>
  <rect id="e75a7650340b405aa32c42167f3df1d9-oa-15" height="42.42424" width="69.69697" y="405.21201" x="1543.09075" stroke="#2D2D2D" fill="#ff0000"/>
  <rect id="e75a7650340b405aa32c42167f3df1d9-oa-16" height="36.36363" width="51.51515" y="308.24232" x="1676.42407" stroke="#2D2D2D" fill="#ff0000"/>
  <rect id="e75a7650340b405aa32c42167f3df1d9-oa-17" height="272.72726" width="42.42424" y="583.99988" x="673.39382" stroke="#2D2D2D" fill="#ff0000"/>
  <rect id="e75a7650340b405aa32c42167f3df1d9-oa-18" height="45.45454" width="75.75757" y="650.66654" x="794.60593" stroke="#2D2D2D" fill="#ff0000"/>
  <rect id="e75a7650340b405aa32c42167f3df1d9-oa-19" height="27.27273" width="109.0909" y="599.15139" x="1133.99986" stroke="#2D2D2D" fill="#ff0000"/>
  <rect id="e75a7650340b405aa32c42167f3df1d9-oa-20" height="33.33333" width="93.93939" y="874.90896" x="1124.90895" stroke="#2D2D2D" fill="#ff0000"/>
  <rect id="e75a7650340b405aa32c42167f3df1d9-oa-21" height="81.81818" width="36.36363" y="717.33321" x="1361.27257" stroke="#2D2D2D" fill="#ff0000"/>
  <rect id="e75a7650340b405aa32c42167f3df1d9-oa-22" height="51.51515" width="72.72727" y="644.60594" x="1215.81804" stroke="#2D2D2D" fill="#ff0000"/>
  <rect id="e75a7650340b405aa32c42167f3df1d9-oa-23" height="33.33333" width="87.87878" y="823.39381" x="1152.18167" stroke="#2D2D2D" fill="#ff0000"/>
  <rect id="e75a7650340b405aa32c42167f3df1d9-oa-24" height="39.39394" width="93.93939" y="532.48473" x="1609.75741" stroke="#2D2D2D" fill="#ff0000"/>
  <rect id="e75a7650340b405aa32c42167f3df1d9-oa-25" height="42.42424" width="48.48485" y="729.45442" x="1603.6968" stroke="#2D2D2D" fill="#ff0000"/>
  <rect id="e75a7650340b405aa32c42167f3df1d9-oa-26" height="30.30303" width="109.0909" y="1008.24228" x="779.45442" stroke="#2D2D2D" fill="#ff0000"/>
  <rect id="e75a7650340b405aa32c42167f3df1d9-oa-27" height="309.09089" width="36.36363" y="1029.4544" x="670.36352" stroke="#2D2D2D" fill="#ff0000"/>
  <rect id="e75a7650340b405aa32c42167f3df1d9-oa-28" height="45.45454" width="63.63636" y="1138.54531" x="773.39381" stroke="#2D2D2D" fill="#ff0000"/>
  <rect id="e75a7650340b405aa32c42167f3df1d9-oa-29" height="112.12121" width="27.27273" y="1168.84834" x="1049.15138" stroke="#2D2D2D" fill="#ff0000"/>
  <rect id="e75a7650340b405aa32c42167f3df1d9-oa-30" height="90.90909" width="36.36363" y="1274.90894" x="1337.03015" stroke="#2D2D2D" fill="#ff0000"/>
  <rect id="e75a7650340b405aa32c42167f3df1d9-oa-31" height="33.33333" width="78.78788" y="1126.4241" x="1146.12107" stroke="#2D2D2D" fill="#ff0000"/>
  <rect id="e75a7650340b405aa32c42167f3df1d9-oa-32" height="30.30303" width="39.39394" y="1287.03015" x="1264.30288" stroke="#2D2D2D" fill="#ff0000"/>
  <rect id="e75a7650340b405aa32c42167f3df1d9-oa-33" height="27.27273" width="87.87878" y="1077.93925" x="1161.27258" stroke="#2D2D2D" fill="#ff0000"/>
  <rect id="e75a7650340b405aa32c42167f3df1d9-oa-34" height="27.27273" width="60.60606" y="1147.63622" x="1491.5756" stroke="#2D2D2D" fill="#ff0000"/>
  <rect id="e75a7650340b405aa32c42167f3df1d9-oa-35" height="21.21212" width="118.18181" y="1023.3938" x="1558.24226" stroke="#2D2D2D" fill="#ff0000"/>
  <rect id="e75a7650340b405aa32c42167f3df1d9-oa-36" height="36.36363" width="96.96969" y="1477.93923" x="1340.06045" stroke="#2D2D2D" fill="#ff0000"/>
  <rect id="e75a7650340b405aa32c42167f3df1d9-oa-37" height="33.33333" width="39.39394" y="1529.45438" x="1197.63622" stroke="#2D2D2D" fill="#ff0000"/>
  <rect id="e75a7650340b405aa32c42167f3df1d9-oa-38" height="33.33333" width="66.66666" y="1574.90892" x="379.45444" stroke="#2D2D2D" fill="#ff0000"/>
  <rect id="e75a7650340b405aa32c42167f3df1d9-oa-39" height="30.30303" width="27.27273" y="1577.93923" x="1085.51501" stroke="#2D2D2D" fill="#ff0000"/>
  <rect id="e75a7650340b405aa32c42167f3df1d9-oa-40" height="36.36363" width="93.93939" y="1577.93923" x="1497.6362" stroke="#2D2D2D" fill="#ff0000"/>
 </g>
</svg>