<svg xmlns="http://www.w3.org/2000/svg" width="2486" height="1166">
 <!-- Created with Image Occlusion Enhanced -->
 <g>
  <title>Labels</title>
 </g>
 <g>
  <title>Masks</title>
  <rect id="f88ed7debf0749a5b2a7955d7e88ec1d-oa-1" height="76.19048" width="383.33334" y="17.33333" x="130.66668" stroke="#2D2D2D" fill="#ff7f00"/>
  <rect id="f88ed7debf0749a5b2a7955d7e88ec1d-oa-2" height="57.14286" width="157.14286" y="183.99999" x="714.00001" stroke="#2D2D2D" fill="#ff7f00"/>
  <rect id="f88ed7debf0749a5b2a7955d7e88ec1d-oa-3" height="78.57143" width="957.14286" y="179.23809" x="1318.76192" stroke="#2D2D2D" fill="#ff7f00"/>
  <rect id="f88ed7debf0749a5b2a7955d7e88ec1d-oa-4" height="42.85714" width="1061.90477" y="272.09523" x="485.42859" stroke="#2D2D2D" fill="#ff7f00"/>
  <rect id="f88ed7debf0749a5b2a7955d7e88ec1d-oa-5" height="59.52381" width="400" y="412.57142" x="492.57144" stroke="#2D2D2D" fill="#ff7f00"/>
  <rect id="f88ed7debf0749a5b2a7955d7e88ec1d-oa-6" height="66.66667" width="752.38096" y="410.19047" x="1623.52383" stroke="#2D2D2D" fill="#ff7f00"/>
  <rect id="f88ed7debf0749a5b2a7955d7e88ec1d-oa-7" height="50" width="207.14286" y="486.38095" x="709.23811" stroke="#2D2D2D" fill="#ff7f00"/>
  <rect id="f88ed7debf0749a5b2a7955d7e88ec1d-oa-8" height="38.09524" width="466.66667" y="491.14285" x="1718.76192" stroke="#2D2D2D" fill="#ff7f00"/>
  <rect id="f88ed7debf0749a5b2a7955d7e88ec1d-oa-9" height="42.85714" width="469.04762" y="555.42857" x="454.4762" stroke="#2D2D2D" fill="#ff7f00"/>
  <rect id="f88ed7debf0749a5b2a7955d7e88ec1d-oa-10" height="52.38095" width="202.38095" y="705.42857" x="821.14287" stroke="#2D2D2D" fill="#ff7f00"/>
  <rect id="f88ed7debf0749a5b2a7955d7e88ec1d-oa-11" height="52.38095" width="535.71429" y="700.66666" x="1816.38097" stroke="#2D2D2D" fill="#ff7f00"/>
  <rect id="f88ed7debf0749a5b2a7955d7e88ec1d-oa-12" height="40.47619" width="373.80953" y="784" x="961.61906" stroke="#2D2D2D" fill="#ff7f00"/>
  <rect id="f88ed7debf0749a5b2a7955d7e88ec1d-oa-13" height="38.09524" width="130.95238" y="776.85714" x="2254.47621" stroke="#2D2D2D" fill="#ff7f00"/>
  <rect id="f88ed7debf0749a5b2a7955d7e88ec1d-oa-14" height="69.04762" width="178.57143" y="914.95238" x="1642.57145" stroke="#2D2D2D" fill="#ff7f00"/>
  <rect id="f88ed7debf0749a5b2a7955d7e88ec1d-oa-15" height="71.42857" width="311.90476" y="998.28571" x="1452.09526" stroke="#2D2D2D" fill="#ff7f00"/>
  <rect id="f88ed7debf0749a5b2a7955d7e88ec1d-oa-16" height="66.66667" width="380.95238" y="998.28571" x="1785.42859" stroke="#2D2D2D" fill="#ff7f00"/>
  <rect id="f88ed7debf0749a5b2a7955d7e88ec1d-oa-17" height="45.2381" width="297.61905" y="1081.61905" x="468.76192" stroke="#2D2D2D" fill="#ff7f00"/>
  <rect id="f88ed7debf0749a5b2a7955d7e88ec1d-oa-18" height="50" width="85.71429" y="1074.47619" x="885.42859" stroke="#2D2D2D" fill="#ff7f00"/>
 </g>
</svg>