<svg xmlns="http://www.w3.org/2000/svg" width="2306" height="1076">
 <!-- Created with Image Occlusion Enhanced -->
 <g>
  <title>Labels</title>
 </g>
 <g>
  <title>Masks</title>
  <rect id="f8cc75b499fc4bfbaf6437bb0890b315-oa-1" height="376.08696" width="63.04348" y="524.00003" x="170.08691" stroke="#2D2D2D" fill="#ff7f00"/>
  <rect id="f8cc75b499fc4bfbaf6437bb0890b315-oa-2" height="36.95652" width="241.30435" y="43.56524" x="604.86952" stroke="#2D2D2D" fill="#ff7f00"/>
  <rect id="f8cc75b499fc4bfbaf6437bb0890b315-oa-3" height="47.82609" width="200" y="41.39132" x="2007.04346" stroke="#2D2D2D" fill="#ff7f00"/>
  <rect id="f8cc75b499fc4bfbaf6437bb0890b315-oa-4" height="50" width="152.17392" y="160.95654" x="1330.95649" stroke="#2D2D2D" fill="#ff7f00"/>
  <rect id="f8cc75b499fc4bfbaf6437bb0890b315-oa-5" height="54.34783" width="210.86957" y="397.91307" x="743.99996" stroke="#2D2D2D" fill="#ff7f00"/>
  <rect id="f8cc75b499fc4bfbaf6437bb0890b315-oa-6" height="47.82609" width="160.86957" y="400.08698" x="1709.21737" stroke="#2D2D2D" fill="#ff7f00"/>
  <rect id="f8cc75b499fc4bfbaf6437bb0890b315-oa-7" height="56.52174" width="171.73913" y="400.08698" x="2074.43477" stroke="#2D2D2D" fill="#ff7f00"/>
  <rect id="f8cc75b499fc4bfbaf6437bb0890b315-oa-8" height="39.13044" width="176.08696" y="467.47829" x="1252.69562" stroke="#2D2D2D" fill="#ff7f00"/>
  <rect id="f8cc75b499fc4bfbaf6437bb0890b315-oa-9" height="50" width="278.26087" y="578.34785" x="376.60865" stroke="#2D2D2D" fill="#ff7f00"/>
  <rect id="f8cc75b499fc4bfbaf6437bb0890b315-oa-10" height="43.47826" width="313.04348" y="654.43481" x="474.43474" stroke="#2D2D2D" fill="#ff7f00"/>
  <rect id="f8cc75b499fc4bfbaf6437bb0890b315-oa-11" height="39.13044" width="197.82609" y="776.17395" x="587.47822" stroke="#2D2D2D" fill="#ff7f00"/>
  <rect id="f8cc75b499fc4bfbaf6437bb0890b315-oa-12" height="32.6087" width="184.78261" y="832.69569" x="370.08691" stroke="#2D2D2D" fill="#ff7f00"/>
  <rect id="f8cc75b499fc4bfbaf6437bb0890b315-oa-13" height="41.30435" width="154.34783" y="889.21743" x="804.86953" stroke="#2D2D2D" fill="#ff7f00"/>
  <rect id="f8cc75b499fc4bfbaf6437bb0890b315-oa-14" height="45.65217" width="160.86957" y="882.69569" x="1478.78258" stroke="#2D2D2D" fill="#ff7f00"/>
  <rect id="f8cc75b499fc4bfbaf6437bb0890b315-oa-15" height="50" width="282.6087" y="945.73917" x="376.60865" stroke="#2D2D2D" fill="#ff7f00"/>
  <rect stroke="#2D2D2D" id="f8cc75b499fc4bfbaf6437bb0890b315-oa-16" height="41.30435" width="97.82608" y="1004.43482" x="904.86953" fill="#ff7f00"/>
 </g>
</svg>